<svg viewBox="0 0 55 55" fill="none" xmlns="http://www.w3.org/2000/svg">
<circle cx="27.5" cy="27.5" r="27.5" fill="url(#paint0_linear_932_1064)"/>
<path d="M24.875 27V39.5H18.3125C17.2784 39.5 16.4375 38.6591 16.4375 37.625V26.9369C16.6394 26.9781 16.8484 27 17.0625 27H24.875ZM26.125 27V39.5H29.875V27H26.125ZM38.9375 27H31.125V39.5H37.6875C38.7216 39.5 39.5625 38.6591 39.5625 37.625V26.9369C39.3606 26.9781 39.1516 27 38.9375 27ZM40.8125 21.375V23.875C40.8125 24.9091 39.9716 25.75 38.9375 25.75H17.0625C16.0284 25.75 15.1875 24.9091 15.1875 23.875V21.375C15.1875 20.3409 16.0284 19.5 17.0625 19.5H23.0059C22.6119 18.9769 22.375 18.3288 22.375 17.625C22.375 15.9019 23.7769 14.5 25.5 14.5C26.5228 14.5 27.4297 14.9963 28 15.7581C28.5706 14.9963 29.4772 14.5 30.5 14.5C32.2231 14.5 33.625 15.9019 33.625 17.625C33.625 18.3288 33.3881 18.9769 32.9941 19.5H38.9375C39.9716 19.5 40.8125 20.3409 40.8125 21.375ZM28.625 17.625V19.5H30.5C31.5341 19.5 32.375 18.6591 32.375 17.625C32.375 16.5909 31.5341 15.75 30.5 15.75C29.4659 15.75 28.625 16.5909 28.625 17.625ZM25.5 19.5H27.375V17.625C27.375 16.5909 26.5341 15.75 25.5 15.75C24.4659 15.75 23.625 16.5909 23.625 17.625C23.625 18.6591 24.4659 19.5 25.5 19.5Z" fill="white"/>
<path d="M37.3177 34.1203C37.2771 33.9828 37.2278 33.8631 37.1699 33.7614C37.1121 33.6597 37.0292 33.5604 36.9212 33.4633C36.8133 33.3663 36.7162 33.2881 36.6302 33.2287C36.5442 33.1692 36.426 33.1028 36.2758 33.0292C36.1257 32.9556 36.0068 32.9009 35.9193 32.8649C35.8316 32.8289 35.7048 32.7796 35.539 32.7171C35.3919 32.6608 35.2824 32.6177 35.2104 32.588C35.1384 32.5583 35.0438 32.5161 34.9265 32.4613C34.8092 32.4066 34.7216 32.358 34.6637 32.3158C34.6058 32.2736 34.544 32.222 34.4783 32.161C34.4126 32.1 34.3664 32.0351 34.3398 31.9662C34.3133 31.8974 34.2999 31.8223 34.2999 31.7409C34.2999 31.5282 34.3938 31.3545 34.5815 31.22C34.7693 31.0855 35.0118 31.0182 35.309 31.0182C35.4404 31.0182 35.5743 31.0362 35.7103 31.0722C35.8463 31.1082 35.9629 31.1488 36.0599 31.1942C36.157 31.2396 36.2485 31.2896 36.3346 31.3444C36.4206 31.3991 36.4816 31.4406 36.5176 31.4687C36.5536 31.4969 36.5764 31.5157 36.5857 31.5251C36.6264 31.5564 36.6686 31.5673 36.7124 31.5579C36.7593 31.5548 36.7953 31.5297 36.8204 31.4829L37.2006 30.7976C37.2382 30.7351 37.2304 30.6756 37.1772 30.6193C37.1584 30.6005 37.135 30.5786 37.1066 30.5535C37.0786 30.5285 37.0175 30.4831 36.9236 30.4174C36.8297 30.3517 36.7304 30.293 36.6256 30.2414C36.5208 30.1898 36.3846 30.1374 36.2172 30.0842C36.0499 30.031 35.877 29.995 35.6986 29.9763V29.1502C35.6986 29.1064 35.6845 29.0704 35.6564 29.0422C35.6283 29.0141 35.5923 29 35.5484 29H34.9148C34.8741 29 34.8389 29.0148 34.8092 29.0446C34.7795 29.0743 34.7646 29.1095 34.7646 29.1502V29.995C34.2733 30.0888 33.8744 30.2985 33.5678 30.6239C33.2612 30.9493 33.1078 31.3279 33.1078 31.7597C33.1078 31.888 33.1211 32.01 33.1477 32.1257C33.1743 32.2415 33.2072 32.3456 33.2463 32.4378C33.2854 32.5302 33.341 32.6209 33.4129 32.7101C33.4849 32.7993 33.5529 32.8759 33.6171 32.9401C33.6812 33.0041 33.7649 33.0707 33.8682 33.1395C33.9714 33.2084 34.0598 33.2639 34.1334 33.3061C34.2069 33.3482 34.3047 33.3969 34.4267 33.4515C34.5487 33.5063 34.645 33.5477 34.7154 33.5759C34.7858 33.6041 34.882 33.6432 35.0041 33.6932C35.173 33.7589 35.2982 33.8098 35.3795 33.8458C35.4609 33.8818 35.5642 33.9318 35.6894 33.996C35.8145 34.06 35.906 34.1187 35.9639 34.1719C36.0218 34.2252 36.0742 34.2909 36.1212 34.3691C36.1681 34.4473 36.1917 34.5302 36.1917 34.6178C36.1917 34.865 36.0954 35.0558 35.903 35.1903C35.7106 35.3249 35.4875 35.3921 35.2341 35.3921C35.1185 35.3921 35.0026 35.3797 34.8869 35.3547C34.4801 35.2732 34.1 35.0777 33.7464 34.7679L33.737 34.7585C33.7088 34.7242 33.6713 34.7101 33.6244 34.7164C33.5743 34.7226 33.5383 34.7414 33.5164 34.7728L33.033 35.4063C32.986 35.4689 32.9892 35.533 33.0424 35.5987C33.0581 35.6175 33.0854 35.6458 33.1245 35.6832C33.1637 35.7209 33.2365 35.7794 33.3428 35.8594C33.4492 35.9392 33.5649 36.0142 33.6901 36.0847C33.8153 36.1551 33.9741 36.2247 34.1665 36.2935C34.359 36.3623 34.5584 36.4107 34.7649 36.4389V37.2602C34.7649 37.301 34.7798 37.3361 34.8095 37.3659C34.8393 37.3956 34.8744 37.4104 34.9151 37.4104H35.5488C35.5926 37.4104 35.6286 37.3964 35.6568 37.3683C35.6849 37.3401 35.6989 37.3041 35.6989 37.2602V36.4389C36.1965 36.3576 36.6009 36.144 36.9122 35.7982C37.2235 35.4525 37.3792 35.0402 37.3792 34.5616C37.3791 34.4051 37.3588 34.2581 37.3177 34.1203Z" fill="#070710"/>
<path d="M23.3177 34.1203C23.2771 33.9828 23.2278 33.8631 23.1699 33.7614C23.1121 33.6597 23.0292 33.5604 22.9212 33.4633C22.8133 33.3663 22.7162 33.2881 22.6302 33.2287C22.5442 33.1692 22.426 33.1028 22.2758 33.0292C22.1257 32.9556 22.0068 32.9009 21.9193 32.8649C21.8316 32.8289 21.7048 32.7796 21.539 32.7171C21.3919 32.6608 21.2824 32.6177 21.2104 32.588C21.1384 32.5583 21.0438 32.5161 20.9265 32.4613C20.8092 32.4066 20.7216 32.358 20.6637 32.3158C20.6058 32.2736 20.544 32.222 20.4783 32.161C20.4126 32.1 20.3664 32.0351 20.3398 31.9662C20.3133 31.8974 20.2999 31.8223 20.2999 31.7409C20.2999 31.5282 20.3938 31.3545 20.5815 31.22C20.7693 31.0855 21.0118 31.0182 21.309 31.0182C21.4404 31.0182 21.5743 31.0362 21.7103 31.0722C21.8463 31.1082 21.9629 31.1488 22.0599 31.1942C22.157 31.2396 22.2485 31.2896 22.3346 31.3444C22.4206 31.3991 22.4816 31.4406 22.5176 31.4687C22.5536 31.4969 22.5764 31.5157 22.5857 31.5251C22.6264 31.5564 22.6686 31.5673 22.7124 31.5579C22.7593 31.5548 22.7953 31.5297 22.8204 31.4829L23.2006 30.7976C23.2382 30.7351 23.2304 30.6756 23.1772 30.6193C23.1584 30.6005 23.135 30.5786 23.1066 30.5535C23.0786 30.5285 23.0175 30.4831 22.9236 30.4174C22.8297 30.3517 22.7304 30.293 22.6256 30.2414C22.5208 30.1898 22.3846 30.1374 22.2172 30.0842C22.0499 30.031 21.877 29.995 21.6986 29.9763V29.1502C21.6986 29.1064 21.6845 29.0704 21.6564 29.0422C21.6283 29.0141 21.5923 29 21.5484 29H20.9148C20.8741 29 20.8389 29.0148 20.8092 29.0446C20.7795 29.0743 20.7646 29.1095 20.7646 29.1502V29.995C20.2733 30.0888 19.8744 30.2985 19.5678 30.6239C19.2612 30.9493 19.1078 31.3279 19.1078 31.7597C19.1078 31.888 19.1211 32.01 19.1477 32.1257C19.1743 32.2415 19.2072 32.3456 19.2463 32.4378C19.2854 32.5302 19.341 32.6209 19.4129 32.7101C19.4849 32.7993 19.5529 32.8759 19.6171 32.9401C19.6812 33.0041 19.7649 33.0707 19.8682 33.1395C19.9714 33.2084 20.0598 33.2639 20.1334 33.3061C20.2069 33.3482 20.3047 33.3969 20.4267 33.4515C20.5487 33.5063 20.645 33.5477 20.7154 33.5759C20.7858 33.6041 20.882 33.6432 21.0041 33.6932C21.173 33.7589 21.2982 33.8098 21.3795 33.8458C21.4609 33.8818 21.5642 33.9318 21.6894 33.996C21.8145 34.06 21.906 34.1187 21.9639 34.1719C22.0218 34.2252 22.0742 34.2909 22.1212 34.3691C22.1681 34.4473 22.1917 34.5302 22.1917 34.6178C22.1917 34.865 22.0954 35.0558 21.903 35.1903C21.7106 35.3249 21.4875 35.3921 21.2341 35.3921C21.1185 35.3921 21.0026 35.3797 20.8869 35.3547C20.4801 35.2732 20.1 35.0777 19.7464 34.7679L19.737 34.7585C19.7088 34.7242 19.6713 34.7101 19.6244 34.7164C19.5743 34.7226 19.5383 34.7414 19.5164 34.7728L19.033 35.4063C18.986 35.4689 18.9892 35.533 19.0424 35.5987C19.0581 35.6175 19.0854 35.6458 19.1245 35.6832C19.1637 35.7209 19.2365 35.7794 19.3428 35.8594C19.4492 35.9392 19.5649 36.0142 19.6901 36.0847C19.8153 36.1551 19.9741 36.2247 20.1665 36.2935C20.359 36.3623 20.5584 36.4107 20.7649 36.4389V37.2602C20.7649 37.301 20.7798 37.3361 20.8095 37.3659C20.8393 37.3956 20.8744 37.4104 20.9151 37.4104H21.5488C21.5926 37.4104 21.6286 37.3964 21.6568 37.3683C21.6849 37.3401 21.6989 37.3041 21.6989 37.2602V36.4389C22.1965 36.3576 22.6009 36.144 22.9122 35.7982C23.2235 35.4525 23.3792 35.0402 23.3792 34.5616C23.3791 34.4051 23.3588 34.2581 23.3177 34.1203Z" fill="#070710"/>
<defs>
<linearGradient id="paint0_linear_932_1064" x1="4.5" y1="55" x2="38.1033" y2="4.54335" gradientUnits="userSpaceOnUse">
<stop stop-color="#633F89"/>
<stop offset="0.60218" stop-color="#559516"/>
<stop offset="1" stop-color="#C5EA32"/>
<stop offset="1" stop-color="#FF00EE" stop-opacity="0.26"/>
</linearGradient>
</defs>
</svg>
