<svg viewBox="0 0 55 55" fill="none" xmlns="http://www.w3.org/2000/svg">
<circle cx="27.5" cy="27.5" r="27" fill="#0F1021"/>
<circle cx="27.5" cy="27.5" r="27" fill="url(#paint0_radial_1326_952)"/>
<circle cx="27.5" cy="27.5" r="27" stroke="#464B8D"/>
<path d="M31.0906 28.8142C30.7373 28.1975 30.7381 27.4394 31.0926 26.8234L31.1116 26.7904C31.5624 26.0071 32.4008 25.5441 33.3041 25.5388C35.3416 25.5269 37.3165 24.4286 38.3467 22.4785C39.738 19.8448 38.7308 16.3403 36.1568 14.8432C33.4121 13.2468 29.8954 14.1853 28.3091 16.9342C27.2481 18.7729 27.321 20.9543 28.3094 22.6703C28.7576 23.4486 28.7686 24.4037 28.3206 25.1821C27.9564 25.8151 27.2821 26.2051 26.5521 26.2051H26.4446C25.6811 26.2051 24.9933 25.7726 24.6314 25.1001C23.6316 23.2426 21.6391 21.9994 19.3638 22.0837C16.3873 22.1939 13.8565 24.8191 13.8477 27.7991C13.8384 30.9754 16.409 33.5531 19.5815 33.5531C21.7821 33.5531 23.692 32.3123 24.6529 30.4922C24.9975 29.8395 25.6708 29.4277 26.4085 29.4277H26.5812C27.2915 29.4277 27.9476 29.8081 28.3007 30.4247C28.6693 31.068 28.6411 31.8589 28.2456 32.4861C27.1109 34.2854 27.0183 36.6551 28.2362 38.6003C29.7636 41.0399 33.2181 41.9703 35.7629 40.627C38.6562 39.0997 39.6786 35.4903 38.058 32.6819C36.9629 30.784 34.9477 29.7501 32.9015 29.8169C32.1582 29.8409 31.4604 29.4599 31.0906 28.8142Z" fill="white"/>
<path d="M33.6238 28.8142C33.2705 28.1975 33.2713 27.4394 33.6258 26.8234L33.6448 26.7904C34.0956 26.0071 34.934 25.5441 35.8373 25.5388C37.8748 25.5269 39.8497 24.4286 40.8799 22.4785C42.2712 19.8448 41.264 16.3403 38.69 14.8432C35.9454 13.2468 32.4286 14.1853 30.8424 16.9342C29.7813 18.7729 29.8542 20.9543 30.8426 22.6703C31.2908 23.4486 31.3018 24.4037 30.8538 25.1821C30.4896 25.8151 29.8153 26.2051 29.0853 26.2051H28.9778C28.2143 26.2051 27.5265 25.7726 27.1646 25.1001C26.1648 23.2426 24.1723 21.9994 21.897 22.0837C18.9205 22.1939 16.3897 24.8191 16.3809 27.7991C16.3716 30.9754 18.9422 33.5531 22.1147 33.5531C24.3153 33.5531 26.2252 32.3123 27.1862 30.4922C27.5307 29.8395 28.204 29.4277 28.9417 29.4277H29.1144C29.8247 29.4277 30.4808 29.8081 30.8339 30.4247C31.2025 31.068 31.1743 31.8589 30.7788 32.4861C29.6441 34.2854 29.5515 36.6551 30.7694 38.6003C32.2968 41.0399 35.7513 41.9703 38.2961 40.627C41.1894 39.0997 42.2118 35.4903 40.5912 32.6819C39.4961 30.784 37.4809 29.7501 35.4347 29.8169C34.6913 29.8409 33.9936 29.4599 33.6238 28.8142Z" fill="white"/>
<path d="M35.7465 42C33.5371 42.0001 31.3179 40.9082 30.1256 39.0038C28.7871 36.8661 28.7911 34.2131 30.1362 32.0802C30.3852 31.6855 30.4 31.1959 30.1747 30.8026C29.9574 30.4234 29.5513 30.1879 29.1145 30.1879H28.9418C28.4881 30.1879 28.0729 30.4406 27.8583 30.8472C26.7296 32.9853 24.5289 34.3134 22.1148 34.3134C20.3767 34.3134 18.7434 33.6352 17.5162 32.4037C16.289 31.1722 15.616 29.536 15.6211 27.7968C15.6311 24.4131 18.4922 21.4488 21.8691 21.3237C22.6406 21.2948 23.4001 21.4006 24.1262 21.6372C24.5252 21.7672 24.7435 22.1963 24.6136 22.5956C24.4836 22.995 24.0541 23.2132 23.6556 23.0832C23.0999 22.9021 22.5178 22.8214 21.9253 22.8433C19.3395 22.9391 17.1487 25.2096 17.1411 27.8012C17.1371 29.1334 17.6526 30.3865 18.5925 31.3298C19.5326 32.2731 20.7834 32.7926 22.1148 32.7926C23.9638 32.7926 25.6495 31.775 26.5142 30.1368C26.9929 29.2303 27.923 28.6671 28.9418 28.6671H29.1145C30.0945 28.6671 31.0061 29.1956 31.4934 30.0464C31.9992 30.9293 31.9717 32.0196 31.4217 32.8917C30.3911 34.5258 30.3881 36.5584 31.4136 38.1965C32.041 39.1986 33.1108 39.9644 34.349 40.2979C35.5872 40.6313 36.8968 40.506 37.9417 39.9543C39.1518 39.3156 40.0264 38.2415 40.4046 36.9301C40.7829 35.6179 40.6156 34.2442 39.9333 33.0618C39.0141 31.4688 37.2969 30.5161 35.4599 30.5766C34.4307 30.6094 33.473 30.0799 32.9646 29.1921C32.479 28.3442 32.48 27.2911 32.9674 26.4441L32.9868 26.4103C33.562 25.4109 34.6527 24.7853 35.8331 24.7783C37.6721 24.7677 39.3485 23.7501 40.2082 22.123C41.4169 19.8353 40.5468 16.8025 38.3083 15.5004C37.157 14.8309 35.8142 14.6509 34.5281 14.9937C33.2416 15.3366 32.1663 16.1607 31.5007 17.3143C30.6161 18.8473 30.6162 20.754 31.5012 22.2905C32.0856 23.3049 32.0899 24.5583 31.5127 25.5614C31.0142 26.4274 30.0842 26.9654 29.0855 26.9654H28.978C27.9463 26.9654 26.9953 26.3887 26.4956 25.4605C26.2836 25.0667 26.019 24.7024 25.709 24.3778C25.419 24.0741 25.4298 23.5929 25.7333 23.3027C26.0366 23.0125 26.5177 23.0235 26.8078 23.3271C27.2121 23.7504 27.5573 24.2256 27.8339 24.7396C28.068 25.1744 28.5064 25.4446 28.978 25.4446H29.0855C29.5422 25.4446 29.9675 25.1987 30.1955 24.8026C30.5032 24.2678 30.499 23.5961 30.1843 23.0497C29.0294 21.0446 29.0295 18.5554 30.1844 16.5539C31.0535 15.0479 32.4572 13.9719 34.1368 13.5242C35.8163 13.0765 37.5692 13.3115 39.0722 14.1856C41.9948 15.8856 43.1304 19.8458 41.5521 22.8336C40.4302 24.9572 38.2423 26.285 35.842 26.2991C35.2 26.3028 34.6106 26.6365 34.3037 27.1697L34.2843 27.2034C34.0659 27.583 34.0654 28.0555 34.2833 28.4361C34.5113 28.8342 34.9421 29.0716 35.4103 29.0568C37.8126 28.9787 40.0494 30.2217 41.2496 32.3016C42.1404 33.8452 42.3589 35.6387 41.865 37.3518C41.3713 39.064 40.2298 40.466 38.651 41.2994C37.7497 41.7751 36.749 41.9999 35.7465 42Z" fill="#463FAB"/>
<defs>
<radialGradient id="paint0_radial_1326_952" cx="0" cy="0" r="1" gradientUnits="userSpaceOnUse" gradientTransform="translate(27.5 27.5) rotate(1.14576) scale(137.527 82.5165)">
<stop stop-color="#5349CA"/>
<stop offset="1" stop-color="#101122" stop-opacity="0"/>
</radialGradient>
</defs>
</svg>
