<svg viewBox="0 0 27 23" xmlns="http://www.w3.org/2000/svg">
	<path d="M13.6558 2.19168L21.6997 10.3122C21.8061 10.4196 21.951 10.48 22.1022 10.48H25.2214C25.7248 10.48 25.9782 9.87238 25.6239 9.51478L17.58 1.39428C17.4736 1.28688 17.3287 1.22638 17.1775 1.22638H14.0583C13.5548 1.22638 13.3015 1.83398 13.6558 2.19168Z" stroke="#FFFFFF"/>
	<path d="M14.3861 13.4268H2.35637C1.35486 13.4268 0.542969 12.6149 0.542969 11.6134C0.542969 10.6118 1.35486 9.79996 2.35637 9.79996H14.3861C15.3876 9.79996 16.1995 10.6118 16.1995 11.6134C16.1995 12.6149 15.3876 13.4268 14.3861 13.4268Z" stroke="#FFFFFF"/>
	<path d="M25.6239 13.7117L17.58 21.8322C17.4736 21.9396 17.3287 22 17.1775 22H14.0583C13.5548 22 13.3015 21.3924 13.6558 21.0347L21.6997 12.9142C21.8061 12.8068 21.951 12.7464 22.1022 12.7464H25.2214C25.7248 12.7464 25.9782 13.354 25.6239 13.7117Z" stroke="#FFFFFF"/>
</svg>