<svg viewBox="0 0 23 27" xmlns="http://www.w3.org/2000/svg">
<path d="M10 14.597L10 2.56731C10 1.56579 10.8115 0.753906 11.8125 0.753906C12.8134 0.753906 13.6249 1.56579 13.6249 2.56731L13.6249 14.597C13.6249 15.5985 12.8134 16.4104 11.8125 16.4104C10.8115 16.4104 10 15.5985 10 14.597Z" stroke="#D4D5F1"/>
<path d="M9.71371 25.8348L1.59744 17.7909C1.49009 17.6845 1.42969 17.5396 1.42969 17.3884L1.42969 14.2693C1.42969 13.7658 2.03695 13.5125 2.39443 13.8668L10.5108 21.9106C10.6181 22.017 10.6785 22.1619 10.6785 22.3131L10.6785 25.4323C10.6785 25.9358 10.0712 26.1891 9.71371 25.8348Z" stroke="#D4D5F1"/>
<path d="M21.2273 13.8668L13.1111 21.9106C13.0037 22.017 12.9434 22.1619 12.9434 22.3131L12.9434 25.4323C12.9434 25.9358 13.5506 26.1891 13.9081 25.8348L22.0243 17.7909C22.1317 17.6845 22.1921 17.5396 22.1921 17.3884L22.1921 14.2693C22.1921 13.7658 21.5849 13.5125 21.2273 13.8668Z" stroke="#D4D5F1"/>
</svg>