<svg viewBox="0 0 22 22" xmlns="http://www.w3.org/2000/svg">
	<path d="M12.001 4C12.001 3.44772 12.4487 3 13.001 3H19.001C19.5533 3 20.001 3.44772 20.001 4C20.001 4.55228 19.5533 5 19.001 5H13.001C12.4487 5 12.001 4.55228 12.001 4Z" fill="#FFFFFF"/>
	<path d="M12.001 7C12.001 6.44772 12.4487 6 13.001 6H16.001C16.5533 6 17.001 6.44772 17.001 7C17.001 7.55228 16.5533 8 16.001 8H13.001C12.4487 8 12.001 7.55228 12.001 7Z" fill="#FFFFFF"/>
	<path d="M10.501 2C5.80326 2 2.00098 5.80228 2.00098 10.5C2.00098 15.1977 5.80326 19 10.501 19C15.1987 19 19.001 15.1977 19.001 10.5C19.001 9.94771 19.4487 9.5 20.001 9.5C20.5533 9.5 21.001 9.94771 21.001 10.5C21.001 16.3023 16.3033 21 10.501 21C4.69869 21 0.000976562 16.3023 0.000976562 10.5C0.000976562 4.69772 4.69869 0 10.501 0C11.0533 0 11.501 0.447715 11.501 1C11.501 1.55228 11.0533 2 10.501 2Z" fill="#FFFFFF"/>
	<path d="M18.2939 18.2929C18.6844 17.9024 19.3176 17.9024 19.7081 18.2929L21.7081 20.2929C22.0986 20.6834 22.0986 21.3166 21.7081 21.7071C21.3176 22.0976 20.6844 22.0976 20.2939 21.7071L18.2939 19.7071C17.9033 19.3166 17.9033 18.6834 18.2939 18.2929Z" fill="#FFFFFF"/>
</svg>