<svg viewBox="0 0 55 55" fill="none" xmlns="http://www.w3.org/2000/svg">
<circle cx="27.5" cy="27.5" r="27" fill="#0F1021"/>
<circle cx="27.5" cy="27.5" r="27" fill="url(#paint0_radial_1326_979)"/>
<circle cx="27.5" cy="27.5" r="27" stroke="#464B8D"/>
<mask id="path-2-inside-1_1326_979" fill="white">
<path fill-rule="evenodd" clip-rule="evenodd" d="M35.71 36.2105C39.7347 34.2043 42.4995 30.0475 42.4995 25.2449C42.4995 18.4822 37.0173 13 30.2546 13C25.4521 13 21.2953 15.7648 19.2891 19.7896C20.9317 18.9707 22.7843 18.5102 24.7444 18.5102C31.5071 18.5102 36.9893 23.9924 36.9893 30.7551C36.9893 32.7152 36.5288 34.5678 35.71 36.2105Z"/>
</mask>
<path fill-rule="evenodd" clip-rule="evenodd" d="M35.71 36.2105C39.7347 34.2043 42.4995 30.0475 42.4995 25.2449C42.4995 18.4822 37.0173 13 30.2546 13C25.4521 13 21.2953 15.7648 19.2891 19.7896C20.9317 18.9707 22.7843 18.5102 24.7444 18.5102C31.5071 18.5102 36.9893 23.9924 36.9893 30.7551C36.9893 32.7152 36.5288 34.5678 35.71 36.2105Z" fill="white"/>
<path d="M35.71 36.2105L34.815 35.7643L33.4821 38.4383L36.1561 37.1054L35.71 36.2105ZM19.2891 19.7896L18.3941 19.3434L17.0612 22.0174L19.7352 20.6845L19.2891 19.7896ZM41.4995 25.2449C41.4995 29.6538 38.9623 33.4719 35.2639 35.3155L36.1561 37.1054C40.5071 34.9366 43.4995 30.4411 43.4995 25.2449H41.4995ZM30.2546 14C36.465 14 41.4995 19.0345 41.4995 25.2449H43.4995C43.4995 17.93 37.5696 12 30.2546 12V14ZM20.184 20.2357C22.0276 16.5372 25.8457 14 30.2546 14V12C25.0584 12 20.5629 14.9924 18.3941 19.3434L20.184 20.2357ZM19.7352 20.6845C21.2424 19.9332 22.9426 19.5102 24.7444 19.5102V17.5102C22.626 17.5102 20.6211 18.0082 18.8429 18.8946L19.7352 20.6845ZM24.7444 19.5102C30.9548 19.5102 35.9893 24.5447 35.9893 30.7551H37.9893C37.9893 23.4401 32.0594 17.5102 24.7444 17.5102V19.5102ZM35.9893 30.7551C35.9893 32.5569 35.5663 34.2571 34.815 35.7643L36.6049 36.6566C37.4913 34.8784 37.9893 32.8735 37.9893 30.7551H35.9893Z" fill="#433CA2" mask="url(#path-2-inside-1_1326_979)"/>
<mask id="path-4-inside-2_1326_979" fill="white">
<path fill-rule="evenodd" clip-rule="evenodd" d="M24.7449 43C31.5076 43 36.9898 37.5178 36.9898 30.7551C36.9898 23.9924 31.5076 18.5102 24.7449 18.5102C17.9822 18.5102 12.5 23.9924 12.5 30.7551C12.5 33.3658 13.317 35.7857 14.7094 37.7731C14.7784 37.6755 14.8581 37.5809 14.9489 37.49L20.4591 32.5921C19.8469 31.9798 18.6224 29.5308 18.3163 27.6941L30.5612 24.939L27.8061 37.1839C25.9694 36.8778 24.1326 35.9594 22.9081 35.041L18.0102 40.5512C17.919 40.6424 17.8267 40.7236 17.7337 40.7954C19.7198 42.1848 22.1372 43 24.7449 43Z"/>
</mask>
<path fill-rule="evenodd" clip-rule="evenodd" d="M24.7449 43C31.5076 43 36.9898 37.5178 36.9898 30.7551C36.9898 23.9924 31.5076 18.5102 24.7449 18.5102C17.9822 18.5102 12.5 23.9924 12.5 30.7551C12.5 33.3658 13.317 35.7857 14.7094 37.7731C14.7784 37.6755 14.8581 37.5809 14.9489 37.49L20.4591 32.5921C19.8469 31.9798 18.6224 29.5308 18.3163 27.6941L30.5612 24.939L27.8061 37.1839C25.9694 36.8778 24.1326 35.9594 22.9081 35.041L18.0102 40.5512C17.919 40.6424 17.8267 40.7236 17.7337 40.7954C19.7198 42.1848 22.1372 43 24.7449 43Z" fill="white"/>
<path d="M14.7094 37.7731L13.8904 38.3469L14.7052 39.5099L15.5256 38.3508L14.7094 37.7731ZM14.9489 37.49L14.2846 36.7426L14.2626 36.7621L14.2418 36.7829L14.9489 37.49ZM20.4591 32.5921L21.1235 33.3395L21.9162 32.6349L21.1663 31.8849L20.4591 32.5921ZM18.3163 27.6941L18.0968 26.7185L17.1745 26.926L17.3299 27.8585L18.3163 27.6941ZM30.5612 24.939L31.5368 25.1585L31.8838 23.6164L30.3417 23.9634L30.5612 24.939ZM27.8061 37.1839L27.6417 38.1703L28.5742 38.3257L28.7817 37.4034L27.8061 37.1839ZM22.9081 35.041L23.5081 34.241L22.772 33.689L22.1607 34.3767L22.9081 35.041ZM18.0102 40.5512L18.7173 41.2584L18.7381 41.2376L18.7576 41.2156L18.0102 40.5512ZM17.7337 40.7954L17.1228 40.0037L16.0458 40.8349L17.1605 41.6148L17.7337 40.7954ZM35.9898 30.7551C35.9898 36.9655 30.9553 42 24.7449 42V44C32.0599 44 37.9898 38.0701 37.9898 30.7551H35.9898ZM24.7449 19.5102C30.9553 19.5102 35.9898 24.5447 35.9898 30.7551H37.9898C37.9898 23.4401 32.0599 17.5102 24.7449 17.5102V19.5102ZM13.5 30.7551C13.5 24.5447 18.5345 19.5102 24.7449 19.5102V17.5102C17.43 17.5102 11.5 23.4401 11.5 30.7551H13.5ZM15.5284 37.1993C14.25 35.3746 13.5 33.1539 13.5 30.7551H11.5C11.5 33.5777 12.3841 36.1969 13.8904 38.3469L15.5284 37.1993ZM14.2418 36.7829C14.1119 36.9128 13.9956 37.0506 13.8932 37.1953L15.5256 38.3508C15.5612 38.3005 15.6042 38.249 15.6561 38.1971L14.2418 36.7829ZM19.7948 31.8446L14.2846 36.7426L15.6133 38.2374L21.1235 33.3395L19.7948 31.8446ZM17.3299 27.8585C17.5029 28.8964 17.9229 30.0569 18.3639 31.0189C18.5869 31.5056 18.8235 31.9593 19.0505 32.3395C19.267 32.7019 19.5092 33.0563 19.752 33.2992L21.1663 31.8849C21.103 31.8217 20.9625 31.6403 20.7676 31.314C20.5833 31.0054 20.3798 30.6173 20.182 30.1856C19.7811 29.3109 19.4358 28.3286 19.3027 27.5297L17.3299 27.8585ZM30.3417 23.9634L18.0968 26.7185L18.5358 28.6697L30.7807 25.9146L30.3417 23.9634ZM28.7817 37.4034L31.5368 25.1585L29.5856 24.7195L26.8305 36.9644L28.7817 37.4034ZM22.3081 35.841C23.6352 36.8363 25.6181 37.833 27.6417 38.1703L27.9705 36.1975C26.3206 35.9225 24.6301 35.0825 23.5081 34.241L22.3081 35.841ZM18.7576 41.2156L23.6555 35.7054L22.1607 34.3767L17.2628 39.8869L18.7576 41.2156ZM18.3447 41.587C18.4732 41.4879 18.5974 41.3782 18.7173 41.2584L17.3031 39.8441C17.2406 39.9066 17.1803 39.9594 17.1228 40.0037L18.3447 41.587ZM24.7449 42C22.3488 42 20.1304 41.2517 18.307 39.976L17.1605 41.6148C19.3091 43.118 21.9255 44 24.7449 44V42Z" fill="#433CA2" mask="url(#path-4-inside-2_1326_979)"/>
<path opacity="0.15" fill-rule="evenodd" clip-rule="evenodd" d="M19.2891 19.7896C20.9318 18.9708 22.7844 18.5102 24.7445 18.5102C31.5072 18.5102 36.9895 23.9924 36.9895 30.7551C36.9895 32.7152 36.5289 34.5677 35.7101 36.2104C34.0674 37.0292 32.2148 37.4898 30.2547 37.4898C23.492 37.4898 18.0098 32.0076 18.0098 25.2449C18.0098 23.2848 18.4703 21.4322 19.2891 19.7896Z" fill="#0F1021"/>
<defs>
<radialGradient id="paint0_radial_1326_979" cx="0" cy="0" r="1" gradientUnits="userSpaceOnUse" gradientTransform="translate(27.5 27.5) rotate(1.14576) scale(137.527 82.5165)">
<stop stop-color="#5349CA"/>
<stop offset="1" stop-color="#101122" stop-opacity="0"/>
</radialGradient>
</defs>
</svg>
