<svg width="17" height="18" viewBox="0 0 17 18" fill="none" xmlns="http://www.w3.org/2000/svg">
<path d="M14.8658 7.70032C14.7775 7.27749 14.6477 6.87073 14.4804 6.48269C14.3225 6.11339 14.1298 5.76281 13.9091 5.43232C13.6709 5.07773 13.4006 4.74589 13.0982 4.44483C12.7811 4.12771 12.4292 3.84404 12.0518 3.5965C11.6973 3.36368 11.3186 3.16565 10.9198 3.00642C10.5532 2.85923 10.1705 2.74282 9.77314 2.66388C9.68081 2.64514 9.58849 2.62909 9.49482 2.61571C9.46538 2.61036 9.43728 2.60768 9.40785 2.60366C9.33961 2.5943 9.2727 2.58627 9.20446 2.57824C9.17369 2.57423 9.14291 2.57155 9.11214 2.56888C9.0265 2.56085 8.94087 2.55416 8.85389 2.55014H8.82446C8.71875 2.54345 8.6117 2.54078 8.50466 2.54078C8.39093 2.54078 8.27853 2.54345 8.16613 2.55014H8.13803C8.04571 2.55683 7.95338 2.56486 7.86106 2.57423C7.82894 2.5769 7.79549 2.58092 7.76338 2.58493C7.69112 2.59296 7.62021 2.60233 7.54929 2.61303C7.51851 2.61838 7.48774 2.6224 7.45696 2.62641C7.35795 2.64247 7.26027 2.65986 7.16393 2.67993C6.7411 2.76825 6.33433 2.89804 5.9463 3.06529C5.57699 3.22452 5.22642 3.41586 4.89592 3.63664C4.54134 3.87482 4.21084 4.14511 3.90844 4.44617C3.59132 4.76329 3.30765 5.1152 3.06011 5.49253C2.82863 5.84711 2.62926 6.22578 2.47003 6.62452C2.32284 6.99115 2.20643 7.37383 2.12749 7.7699C2.04586 8.18068 2.00171 8.60618 2.00171 9.04105C2.00171 9.5 2.04988 9.94825 2.14087 10.3818C2.22918 10.8046 2.36031 11.2114 2.52623 11.5994C2.68412 11.9687 2.8768 12.3193 3.09758 12.6498C3.33575 13.0044 3.60604 13.3362 3.90844 13.6373C4.22556 13.9544 4.57747 14.2381 4.9548 14.4856C5.30938 14.7171 5.68805 14.9164 6.08679 15.0757C6.45342 15.2229 6.8361 15.3393 7.23351 15.4182C7.32583 15.4369 7.4195 15.453 7.51182 15.4664C7.54126 15.4717 7.56936 15.4744 7.5988 15.4784C7.66704 15.4878 7.73394 15.4958 7.80218 15.5039C7.83296 15.5079 7.86373 15.5105 7.89451 15.5132C7.98014 15.5212 8.06712 15.5279 8.15409 15.5333C8.2705 15.54 8.38691 15.5427 8.50466 15.5427C8.96361 15.5427 9.41186 15.4945 9.84405 15.4035C10.2669 15.3152 10.6736 15.1854 11.0617 15.0181C11.431 14.8589 11.7816 14.6676 12.1121 14.4468C12.4666 14.2086 12.7985 13.9383 13.0995 13.6373C13.4167 13.3201 13.7003 12.9682 13.9479 12.5909C14.1807 12.2363 14.3787 11.8576 14.538 11.4589C14.6851 11.0923 14.8015 10.7096 14.8805 10.3135C14.9621 9.90276 15.0063 9.47725 15.0063 9.04239C15.0063 8.58344 14.9581 8.13519 14.8671 7.703L14.8658 7.70032ZM9.57778 2.63043C9.55905 2.62641 9.53898 2.62374 9.51891 2.61972C9.53898 2.6224 9.55771 2.62641 9.57778 2.63043ZM9.36904 2.59831C9.32087 2.59162 9.27137 2.58627 9.2232 2.58092C9.2727 2.58627 9.32087 2.59296 9.36904 2.59831ZM8.13402 2.55014C8.04571 2.55549 7.9574 2.56219 7.87042 2.57155C7.9574 2.56352 8.04571 2.55549 8.13402 2.55014ZM7.74331 2.58493C7.69112 2.59162 7.64028 2.59831 7.58943 2.605C7.64028 2.59831 7.69246 2.59028 7.74331 2.58493ZM7.4302 2.62909C7.41013 2.6331 7.39006 2.63712 7.36999 2.63979C7.39006 2.63578 7.41013 2.63176 7.4302 2.62909ZM7.42753 15.4503C7.4476 15.4543 7.46633 15.457 7.4864 15.461C7.46633 15.4584 7.4476 15.4543 7.42753 15.4503ZM7.63626 15.4824C7.68443 15.4891 7.73394 15.4958 7.78345 15.5012C7.73394 15.4958 7.68577 15.4891 7.63626 15.4824ZM7.90387 15.5132C7.98549 15.5212 8.06845 15.5266 8.15141 15.532C8.06845 15.5266 7.98683 15.5212 7.90387 15.5132Z" fill="#DF5E08"/>
<path d="M2.18918 11.7426C2.01389 11.3332 1.87607 10.9023 1.78241 10.4554C1.74361 10.2708 1.71283 10.0834 1.68875 9.89344L0.0683594 10.0968C0.0977966 10.331 0.135262 10.5625 0.183432 10.7913C0.299843 11.3439 0.468438 11.8764 0.686541 12.3835C0.726683 12.4772 0.769501 12.5695 0.813656 12.6619L2.29087 11.9661C2.25608 11.8911 2.21995 11.8176 2.18784 11.7413L2.18918 11.7426Z" fill="#040812"/>
<path d="M15.6125 13.7016L14.2463 12.8064C13.9881 13.1998 13.691 13.5664 13.3592 13.8969C13.1799 14.0762 12.9899 14.2435 12.7932 14.4014L13.8128 15.6765C14.0577 15.4798 14.2918 15.2724 14.514 15.0516C14.9247 14.6409 15.2927 14.1886 15.6125 13.7016Z" fill="#040812"/>
<path d="M5.94899 15.4169C5.63589 15.2911 5.33482 15.1439 5.0458 14.9753L4.2229 16.387C4.58016 16.5957 4.95348 16.779 5.34152 16.9343C5.78174 17.1109 6.24203 17.2514 6.7157 17.3531L7.05958 15.7554C6.67689 15.6738 6.30491 15.5614 5.94899 15.4182V15.4169Z" fill="#040812"/>
<path d="M14.8178 6.33819C14.993 6.74764 15.1309 7.17849 15.2245 7.6254C15.2633 7.81006 15.2941 7.99738 15.3182 8.18739L16.9386 7.984C16.9091 7.74984 16.8717 7.51836 16.8235 7.28955C16.7071 6.73693 16.5385 6.20439 16.3204 5.69727C16.2803 5.6036 16.2374 5.51128 16.1933 5.41895L14.7161 6.11474C14.7509 6.18967 14.7856 6.2646 14.8191 6.33953L14.8178 6.33819Z" fill="#040812"/>
<path d="M11.0576 2.6653C11.3707 2.79107 11.6731 2.9396 11.9608 3.10686L12.7837 1.69521C12.4264 1.48647 12.0531 1.30316 11.6651 1.14794C11.2235 0.971315 10.7646 0.830819 10.2909 0.729127L9.94702 2.32677C10.3297 2.40839 10.7017 2.52079 11.0576 2.66396V2.6653Z" fill="#040812"/>
<path d="M16.9371 7.98267L15.3167 8.18606C15.2926 7.99739 15.2619 7.81006 15.2231 7.62407C15.1294 7.17716 14.9929 6.74765 14.8163 6.33686C14.7842 6.26059 14.7481 6.18566 14.7133 6.11073L16.1905 5.41494C16.0098 5.0336 15.8038 4.66697 15.5723 4.31908C15.2619 3.85477 14.9059 3.42124 14.5126 3.02785C14.0978 2.61305 13.6388 2.24107 13.1451 1.9186C13.026 1.841 12.9055 1.76606 12.7824 1.69381L11.9595 3.10546C11.6705 2.93686 11.3695 2.78834 11.0564 2.6639C10.7004 2.52073 10.3285 2.40833 9.94577 2.32671L10.2896 0.729066C10.2482 0.7197 10.2067 0.711672 10.1639 0.702305C9.62597 0.595261 9.07068 0.539062 8.50201 0.539062C7.90122 0.539062 7.31515 0.601952 6.74915 0.719701C6.19654 0.836112 5.66399 1.00471 5.15687 1.22281C4.67383 1.42887 4.21354 1.68043 3.78268 1.96945C3.5793 2.10593 3.38394 2.25178 3.1926 2.40432L4.2122 3.67948C4.01417 3.83737 3.82416 4.00597 3.6462 4.18393C3.31035 4.51978 3.01063 4.89043 2.74971 5.28917L2.75907 5.27578L1.39292 4.38063L1.38087 4.39802C1.07714 4.86233 0.817552 5.35741 0.608815 5.87925C0.416135 6.35961 0.266273 6.86004 0.163243 7.37921C0.0561983 7.91711 0 8.4724 0 9.04107C0 9.39966 0.022747 9.75158 0.0655647 10.0981L1.68595 9.89474C1.71004 10.0834 1.74081 10.2707 1.77961 10.4567C1.87328 10.9036 2.00976 11.3332 2.18638 11.7439C2.2185 11.8202 2.25329 11.8938 2.28941 11.9687L0.8122 12.6645C0.992837 13.0459 1.1989 13.4125 1.43038 13.7604C1.74081 14.2247 2.09673 14.6582 2.49012 15.0516C2.90492 15.4664 3.36387 15.8384 3.85761 16.1609C3.9767 16.2385 4.09847 16.3134 4.22157 16.3857L5.04447 14.974C5.33349 15.1426 5.63455 15.2911 5.94766 15.4156C6.33569 15.5708 6.73979 15.6925 7.1586 15.7755C7.12515 15.7688 7.0917 15.7594 7.05691 15.7528L6.71303 17.3504C6.75451 17.3598 6.79599 17.3691 6.8388 17.3772C7.3767 17.4842 7.93199 17.5404 8.50067 17.5404C9.10146 17.5404 9.68752 17.4775 10.2522 17.3598C10.8048 17.2433 11.3373 17.0748 11.8445 16.8566C12.3275 16.6493 12.7878 16.399 13.2187 16.11C13.422 15.9735 13.6187 15.8277 13.8087 15.6751L12.7891 14.4C12.9872 14.2421 13.1758 14.0735 13.3551 13.8955C13.687 13.5637 13.984 13.1984 14.2423 12.805L15.6084 13.7002L15.6205 13.6828C15.9242 13.2185 16.1838 12.7221 16.3925 12.2016C16.5852 11.7225 16.7351 11.2208 16.8381 10.7016C16.9451 10.1637 17.0013 9.60841 17.0013 9.03973C17.0013 8.68114 16.9786 8.32923 16.9358 7.98267H16.9371ZM14.5005 5.69727C14.4791 5.65847 14.4564 5.61833 14.4336 5.57952C14.4564 5.61833 14.4791 5.65713 14.5005 5.69727ZM4.68989 3.32891C4.60693 3.38377 4.52531 3.44265 4.44502 3.50152C4.52531 3.44265 4.60693 3.38511 4.68989 3.32891ZM1.63912 9.24312C1.63912 9.25918 1.63912 9.27657 1.64046 9.29397C1.64046 9.27657 1.63912 9.26052 1.63912 9.24312ZM1.64848 9.45186C1.64848 9.46791 1.65116 9.48263 1.65116 9.49868C1.65116 9.48263 1.64848 9.46658 1.64848 9.45186ZM2.38442 12.1561C2.39646 12.1801 2.4085 12.2029 2.42054 12.227C2.4085 12.2042 2.39646 12.1801 2.38442 12.1561ZM2.50484 12.3835C2.52759 12.4237 2.55033 12.4625 2.57308 12.5013C2.55033 12.4625 2.52759 12.4223 2.50484 12.3835ZM13.501 12.2992C13.2735 12.6458 13.0139 12.9683 12.7222 13.26C12.4453 13.5369 12.1415 13.7858 11.8164 14.0039C11.5126 14.2073 11.1902 14.3826 10.8516 14.5284C10.4957 14.681 10.1211 14.8014 9.73302 14.883C9.33562 14.966 8.92483 15.0115 8.50334 15.0115C8.10327 15.0115 7.71389 14.9713 7.33656 14.8964C6.97261 14.8241 6.6207 14.7171 6.28485 14.582C5.91956 14.4348 5.57166 14.2528 5.24518 14.04C4.89862 13.8139 4.57615 13.553 4.28445 13.2613C4.00748 12.9843 3.7586 12.6806 3.5405 12.3554C3.33711 12.0517 3.16183 11.7292 3.01598 11.3907C2.86344 11.0348 2.74301 10.6601 2.66139 10.2721C2.57843 9.87467 2.53294 9.46389 2.53294 9.04107C2.53294 8.64233 2.57308 8.25162 2.64801 7.87429C2.72027 7.51034 2.82731 7.15843 2.96246 6.82124C3.10964 6.45595 3.29162 6.10806 3.50437 5.78157C3.7305 5.43501 3.99142 5.11254 4.28312 4.82085C4.56009 4.54387 4.86383 4.29499 5.18898 4.07689C5.49272 3.8735 5.81519 3.69822 6.15372 3.55237C6.50964 3.39983 6.8843 3.27941 7.27233 3.19778C7.66974 3.11482 8.08052 3.06933 8.50334 3.06933C8.90342 3.06933 9.2928 3.10947 9.67013 3.1844C10.0341 3.25666 10.386 3.3637 10.7218 3.49885C11.0871 3.64603 11.435 3.82801 11.7615 4.04076C12.1081 4.26823 12.4305 4.52781 12.7222 4.81951C12.9992 5.09649 13.2481 5.40022 13.4662 5.72537C13.6696 6.02911 13.8449 6.35158 13.9907 6.69011C14.1433 7.04603 14.2637 7.42069 14.344 7.80872C14.4269 8.20613 14.4724 8.61691 14.4724 9.03839C14.4724 9.43847 14.4323 9.82784 14.3573 10.2052C14.2851 10.5691 14.178 10.921 14.0429 11.2569C13.8957 11.6222 13.7137 11.9701 13.501 12.2966V12.2992ZM15.3542 8.58479C15.3542 8.59951 15.3555 8.61423 15.3569 8.62895C15.3569 8.61423 15.3555 8.59951 15.3542 8.58479ZM15.3649 8.78818C15.3649 8.80424 15.3662 8.82029 15.3662 8.83769C15.3662 8.82163 15.3662 8.80558 15.3649 8.78818Z" fill="#DF5E08"/>
<path d="M3.64757 4.18526C3.82687 4.00596 4.01688 3.8387 4.21357 3.68081L3.19397 2.40564C2.94911 2.601 2.71495 2.80974 2.49283 3.03052C2.08205 3.4413 1.71408 3.89356 1.39429 4.38061L2.76044 5.27577C3.01869 4.88239 3.31574 4.51576 3.64757 4.18526Z" fill="#040812"/>
<path d="M13.873 7.90909C13.798 7.55316 13.6883 7.20928 13.5478 6.88146C13.414 6.56969 13.2521 6.27398 13.0661 5.99433C12.8654 5.6946 12.6366 5.41495 12.3824 5.16206C12.1148 4.89445 11.8177 4.65494 11.4993 4.4462C11.1995 4.25084 10.8797 4.08359 10.5439 3.94844C10.2348 3.824 9.91099 3.72632 9.57647 3.65942C9.22992 3.58984 8.87132 3.55372 8.50335 3.55372C8.11532 3.55372 7.73799 3.5952 7.3727 3.67146C7.01677 3.7464 6.67289 3.85612 6.34507 3.99661C6.0333 4.13042 5.73759 4.29232 5.45794 4.47831C5.15821 4.67902 4.87856 4.90783 4.62433 5.16206C4.35672 5.42967 4.11721 5.72672 3.90847 6.04518C3.71311 6.3449 3.54452 6.6647 3.40937 7.00055C3.28494 7.30964 3.18726 7.63345 3.12035 7.96796C3.05078 8.31452 3.01465 8.67446 3.01465 9.04108C3.01465 9.42912 3.05613 9.80645 3.1324 10.1717C3.20733 10.5277 3.31705 10.8715 3.45754 11.1994C3.59135 11.5111 3.75326 11.8068 3.93925 12.0851C4.13995 12.3849 4.36876 12.6645 4.62299 12.9188C4.8906 13.1864 5.18765 13.4259 5.50611 13.6346C5.80583 13.8313 6.12563 13.9972 6.46148 14.1337C6.77191 14.2582 7.09438 14.3558 7.42889 14.4227C7.68982 14.4749 7.95876 14.5084 8.23173 14.5217C7.96278 14.5084 7.69918 14.4749 7.44228 14.4241C7.11177 14.3585 6.79198 14.2622 6.4869 14.1391C6.15507 14.0053 5.83928 13.8407 5.54224 13.6467C5.22779 13.4406 4.93476 13.2038 4.66982 12.9388C4.41827 12.6873 4.19214 12.4116 3.99411 12.1159C3.80945 11.8403 3.65022 11.5473 3.51776 11.2395C3.3786 10.9157 3.27022 10.5758 3.19662 10.2239C3.12035 9.86265 3.08021 9.48933 3.08021 9.10665C3.08021 8.74403 3.11634 8.38945 3.18458 8.04691C3.25015 7.71641 3.34649 7.39661 3.46959 7.09154C3.60339 6.7597 3.76797 6.44392 3.96199 6.14687C4.16805 5.83243 4.40489 5.53939 4.66982 5.27446C4.92138 5.0229 5.19702 4.79677 5.49273 4.59874C5.76837 4.41409 6.0614 4.25486 6.36915 4.12239C6.69296 3.98323 7.03283 3.87485 7.38474 3.80126C7.74601 3.72499 8.11933 3.68485 8.50202 3.68485C8.86463 3.68485 9.21921 3.72097 9.56176 3.78921C9.89226 3.85478 10.2107 3.95112 10.5171 4.07422C10.849 4.20802 11.1647 4.37261 11.4618 4.56662C11.7762 4.77268 12.0693 5.00952 12.3342 5.27446C12.5858 5.52601 12.8119 5.80165 13.0099 6.09736C13.1946 6.373 13.3538 6.66603 13.4863 6.97379C13.6254 7.2976 13.7338 7.63746 13.8074 7.98937C13.8837 8.35065 13.9238 8.72396 13.9238 9.10665C13.9238 9.46926 13.8877 9.82385 13.8194 10.1664C13.7539 10.4969 13.6575 10.8167 13.5344 11.1217C13.4006 11.4536 13.2361 11.7694 13.042 12.0664C12.836 12.3809 12.5991 12.6739 12.3342 12.9388C12.0827 13.1904 11.807 13.4165 11.5113 13.6145C11.2357 13.7992 10.9426 13.9584 10.6349 14.0909C10.3111 14.2301 9.9712 14.3384 9.61929 14.412C9.25802 14.4883 8.8847 14.5284 8.50202 14.5284C8.89005 14.5284 9.26738 14.487 9.63267 14.4107C9.9886 14.3358 10.3325 14.226 10.6603 14.0855C10.9721 13.9517 11.2678 13.7898 11.5474 13.6038C11.8472 13.4031 12.1268 13.1743 12.3797 12.9201C12.6473 12.6525 12.8868 12.3554 13.0956 12.037C13.2909 11.7373 13.4582 11.4175 13.5933 11.0816C13.7178 10.7725 13.8154 10.4487 13.8823 10.1142C13.9519 9.76631 13.988 9.40771 13.988 9.04108C13.988 8.65305 13.9466 8.27571 13.8703 7.91043L13.873 7.90909Z" fill="#EAE573"/>
<path d="M3.41462 5.72271C3.19384 6.06124 3.01053 6.41582 2.86468 6.78245C2.72552 7.13034 2.61982 7.49028 2.54756 7.85423C2.46996 8.24628 2.43115 8.64368 2.43115 9.04109C2.43115 9.46124 2.47531 9.88005 2.56228 10.2922C2.6439 10.6802 2.76299 11.0615 2.91954 11.4308C3.06405 11.7707 3.24068 12.0999 3.45075 12.4143C3.66885 12.7408 3.92041 13.0499 4.20809 13.3376C4.51183 13.6413 4.83965 13.9049 5.18621 14.131C5.5234 14.3518 5.87932 14.5351 6.24595 14.681C6.59518 14.8201 6.95378 14.9258 7.31773 14.9981C7.70978 15.0757 8.10719 15.1159 8.50459 15.1145C8.92474 15.1145 9.34355 15.0704 9.75567 14.9834C10.1437 14.9018 10.5251 14.7827 10.8944 14.6261C11.2342 14.4816 11.5634 14.305 11.8778 14.0949C12.203 13.8768 12.5134 13.6253 12.8011 13.3376C13.1048 13.0338 13.3684 12.706 13.5946 12.3595C13.8153 12.0223 13.9986 11.6663 14.1445 11.2997C14.2837 10.9505 14.3894 10.5919 14.4616 10.2279C14.5392 9.83589 14.578 9.43849 14.578 9.03975C14.578 8.62094 14.5339 8.20079 14.4469 7.78867C14.3653 7.40063 14.2462 7.01928 14.0896 6.64998C13.9451 6.31012 13.7685 5.98095 13.5584 5.66651C13.3403 5.34002 13.0888 5.03093 12.8011 4.74325C12.4973 4.43951 12.1695 4.17592 11.8243 3.94978C11.4858 3.72901 11.1312 3.54569 10.7646 3.39984C10.4167 3.26069 10.0567 3.15498 9.69278 3.08272C9.30073 3.00512 8.90333 2.96631 8.50593 2.96631C8.08578 2.96631 7.66697 3.01047 7.25484 3.09744C6.86681 3.17906 6.48546 3.29815 6.11616 3.45604C5.77629 3.60055 5.44713 3.77718 5.13269 3.98725C4.8062 4.20402 4.49711 4.45691 4.20943 4.74459C3.90569 5.04833 3.64209 5.37615 3.41596 5.72137L3.41462 5.72271ZM6.30616 3.9083C6.64603 3.76379 6.99526 3.65407 7.35252 3.57914C7.73119 3.5002 8.11655 3.45872 8.50325 3.45872C8.86854 3.45872 9.23517 3.49485 9.5951 3.56576C9.92962 3.63133 10.2601 3.72901 10.5799 3.85746C10.9171 3.99126 11.2436 4.15986 11.554 4.36324C11.8725 4.57064 12.1735 4.81283 12.4519 5.09248C12.7154 5.35608 12.9469 5.64109 13.1476 5.94081C13.3403 6.22983 13.5022 6.53223 13.636 6.84534C13.7805 7.1852 13.8903 7.53444 13.9652 7.8917C14.0441 8.27037 14.0856 8.65573 14.0856 9.04243C14.0856 9.40771 14.0495 9.77434 13.9786 10.1343C13.9117 10.4688 13.8153 10.7993 13.6869 11.1191C13.5531 11.4563 13.3845 11.7828 13.1811 12.0932C12.9737 12.4116 12.7315 12.7127 12.4519 12.991C12.1883 13.2546 11.9032 13.4874 11.6035 13.6868C11.3145 13.8795 11.0121 14.0414 10.7003 14.1752C10.3605 14.3197 10.0112 14.4294 9.65398 14.5044C9.27531 14.5833 8.88995 14.6248 8.50325 14.6248C8.13796 14.6248 7.77133 14.5887 7.4114 14.5177C7.07688 14.4508 6.74638 14.3545 6.42659 14.226C6.0894 14.0909 5.76291 13.9236 5.45248 13.7203C5.13403 13.5129 4.83296 13.2693 4.55465 12.991C4.29105 12.7274 4.05823 12.4424 3.85886 12.1427C3.66618 11.8537 3.50427 11.5513 3.37047 11.2395C3.22596 10.8996 3.11624 10.5504 3.04131 10.1931C2.96236 9.81448 2.92088 9.42912 2.92088 9.04243C2.92088 8.67714 2.95701 8.31185 3.02793 7.95057C3.09483 7.61606 3.19117 7.28556 3.31962 6.96576C3.45477 6.62857 3.62202 6.30209 3.82541 5.99166C4.03281 5.6732 4.27499 5.37214 4.55465 5.09382C4.81824 4.83023 5.10325 4.59874 5.40297 4.39803C5.69199 4.20535 5.9944 4.04345 6.30616 3.90964V3.9083Z" fill="#DF5E08"/>
<path d="M13.0649 5.99562L13.4663 5.72801C13.2482 5.40153 12.9993 5.09779 12.7223 4.82215L12.3811 5.16335C12.6353 5.41758 12.8641 5.69724 13.0649 5.99562Z" fill="#DF5E08"/>
<path d="M13.5478 6.88146L13.9921 6.69143C13.8462 6.3529 13.671 6.03043 13.4676 5.72669L13.0661 5.99433C13.2521 6.27265 13.414 6.56969 13.5478 6.88146Z" fill="#E2E3DD"/>
<path d="M13.873 7.90909L14.3453 7.81003C14.2637 7.42199 14.1446 7.04735 13.9921 6.69143L13.5478 6.88146C13.6883 7.20928 13.798 7.55316 13.873 7.90909Z" fill="#DF5E08"/>
<path d="M12.3811 12.9188L12.7222 13.26C13.0139 12.9683 13.2735 12.6458 13.501 12.2992L13.097 12.0356C12.8882 12.3541 12.6487 12.6498 12.3811 12.9188Z" fill="#E2E3DD"/>
<path d="M3.41064 7.00059L2.96246 6.82124C2.82731 7.15843 2.72027 7.51034 2.64801 7.87429L3.12162 7.96935C3.18852 7.63483 3.2862 7.31236 3.41064 7.00193V7.00059Z" fill="#E2E3DD"/>
<path d="M3.13371 10.1717L2.66138 10.2708C2.743 10.6588 2.86209 11.0335 3.01596 11.3894L3.45886 11.1994C3.31836 10.8716 3.20864 10.5277 3.13371 10.1717Z" fill="#DF5E08"/>
<path d="M3.1217 7.96793L2.64803 7.87293C2.5731 8.25026 2.53296 8.64097 2.53296 9.03971H3.016C3.016 8.67309 3.05346 8.31449 3.1217 7.96659V7.96793Z" fill="#DF5E08"/>
<path d="M3.016 9.04102L2.53294 9.04107C2.53294 9.46256 2.57709 9.87473 2.66139 10.2721L3.13375 10.173C3.05748 9.80773 3.016 9.43039 3.016 9.04236V9.04102Z" fill="#E2E3DD"/>
<path d="M3.45886 11.1994L3.01596 11.3894C3.16181 11.728 3.337 12.0503 3.54039 12.3541L3.9418 12.0865C3.75581 11.8082 3.59391 11.5111 3.4601 11.2007L3.45886 11.1994Z" fill="#E2E3DD"/>
<path d="M4.62441 12.9187L4.2832 13.2599C4.5749 13.5516 4.89737 13.8112 5.24393 14.0386L5.50752 13.6346C5.18907 13.4258 4.89336 13.1863 4.62441 12.9187Z" fill="#E2E3DD"/>
<path d="M3.94048 12.0865L3.53906 12.3541C3.75717 12.6806 4.00622 12.9843 4.2832 13.2599L4.62441 12.9187C4.37018 12.6645 4.14119 12.3849 3.94048 12.0852V12.0865Z" fill="#DF5E08"/>
<path d="M5.50752 13.6346L5.24393 14.0386C5.57041 14.2514 5.91828 14.4335 6.28357 14.5806L6.46287 14.1324C6.12701 13.9972 5.80722 13.83 5.50749 13.6333L5.50752 13.6346Z" fill="#DF5E08"/>
<path d="M3.90847 6.04518L3.50437 5.78157C3.29162 6.10806 3.10964 6.45595 2.96246 6.82124L3.41064 7.00059C3.54578 6.66474 3.71305 6.34494 3.90975 6.04522L3.90847 6.04518Z" fill="#DF5E08"/>
<path d="M8.50335 3.55372L8.50347 3.07068C8.08198 3.07068 7.66986 3.11484 7.27246 3.19914L7.37148 3.67147C7.73677 3.5952 8.11544 3.55372 8.50213 3.55372H8.50335Z" fill="#E2E3DD"/>
<path d="M6.34371 3.99661L6.1537 3.55372C5.81518 3.69956 5.4927 3.87485 5.18896 4.07823L5.45658 4.47965C5.73489 4.29366 6.03194 4.13176 6.34371 3.99795V3.99661Z" fill="#E2E3DD"/>
<path d="M7.37148 3.67147L7.27246 3.19914C6.88443 3.28076 6.51096 3.39984 6.1537 3.55372L6.34371 3.99661C6.67154 3.85612 7.01556 3.74641 7.37148 3.67147Z" fill="#DF5E08"/>
<path d="M4.62433 5.16206L4.28312 4.82085C3.99143 5.11254 3.73184 5.43501 3.50437 5.78157L3.90847 6.04518C4.1172 5.72672 4.35672 5.43101 4.62433 5.16206Z" fill="#E2E3DD"/>
<path d="M5.45794 4.47831L5.19029 4.07691C4.8638 4.29501 4.56006 4.54389 4.28442 4.82087L4.62563 5.16207C4.87986 4.90784 5.15951 4.67903 5.45924 4.47833L5.45794 4.47831Z" fill="#DF5E08"/>
<path d="M13.873 7.90909C13.9493 8.27438 13.9908 8.65169 13.9908 9.03973H14.4738C14.4738 8.61824 14.4296 8.2061 14.3453 7.81003L13.873 7.90909Z" fill="#E2E3DD"/>
<path d="M13.885 10.1128L14.3587 10.2078C14.4336 9.83047 14.4738 9.43976 14.4738 9.04102H13.9907C13.9907 9.40765 13.9533 9.76625 13.885 10.1141V10.1128Z" fill="#DF5E08"/>
<path d="M12.3809 5.16207L12.7221 4.82087C12.4304 4.52917 12.108 4.26959 11.7614 4.04212L11.4978 4.44621C11.8163 4.65495 12.112 4.89446 12.3809 5.16207Z" fill="#E2E3DD"/>
<path d="M13.5959 11.0803L14.0442 11.2596C14.1793 10.9224 14.2865 10.5718 14.3587 10.2078L13.885 10.1128C13.8181 10.4473 13.7204 10.7699 13.5959 11.0803Z" fill="#E2E3DD"/>
<path d="M6.46275 14.1337L6.28345 14.5819C6.62064 14.7171 6.97121 14.8241 7.33516 14.8964L7.43016 14.4227C7.09565 14.3558 6.77318 14.2581 6.46275 14.1337Z" fill="#E2E3DD"/>
<path d="M11.4993 4.4462L11.7629 4.04216C11.4364 3.82941 11.0885 3.64744 10.7232 3.50025L10.5439 3.94844C10.8797 4.08359 11.1995 4.25084 11.4993 4.4462Z" fill="#DF5E08"/>
<path d="M10.5426 3.94849L10.7219 3.50024C10.3847 3.3651 10.0341 3.25805 9.6702 3.1858L9.5752 3.65947C9.90971 3.72637 10.2322 3.82405 10.5426 3.94849Z" fill="#E2E3DD"/>
<path d="M13.097 12.0356L13.501 12.2992C13.7138 11.9727 13.8957 11.6249 14.0429 11.2596L13.5947 11.0803C13.4595 11.4162 13.2924 11.7359 13.097 12.0356Z" fill="#DF5E08"/>
<path d="M8.50342 14.5284L8.50334 15.0115C8.92483 15.0115 9.33696 14.9673 9.73302 14.883L9.63408 14.4106C9.26879 14.4869 8.89145 14.5284 8.50342 14.5284Z" fill="#E2E3DD"/>
<path d="M9.5752 3.65947L9.6702 3.1858C9.29287 3.11087 8.90221 3.07068 8.50347 3.07068L8.50335 3.55372C8.86998 3.55372 9.22857 3.59118 9.57647 3.65942L9.5752 3.65947Z" fill="#DF5E08"/>
<path d="M7.43021 14.4214L7.33521 14.8951C7.71254 14.97 8.10325 15.0101 8.50199 15.0101V14.5271C8.13536 14.5271 7.77676 14.4896 7.42887 14.4214H7.43021Z" fill="#DF5E08"/>
<path d="M9.63408 14.4106L9.73302 14.883C10.1211 14.8014 10.4943 14.6822 10.8516 14.5284L10.6617 14.0856C10.3338 14.2261 9.99001 14.3357 9.63408 14.4106Z" fill="#DF5E08"/>
<path d="M10.6616 14.0842L10.8516 14.5271C11.1902 14.3813 11.5126 14.206 11.8164 14.0026L11.5488 13.6012C11.2704 13.7872 10.9734 13.9491 10.6616 14.0829V14.0842Z" fill="#E2E3DD"/>
<path d="M11.5488 13.6024L11.8164 14.0039C12.1429 13.7858 12.4466 13.537 12.7222 13.26L12.3811 12.9188C12.1269 13.173 11.8472 13.4017 11.5488 13.6024Z" fill="#DF5E08"/>
<path d="M1.72217 10.1222C1.7252 10.1409 1.72823 10.1597 1.73127 10.177C1.72823 10.1583 1.7252 10.1396 1.72217 10.1222Z" fill="#DF5E08"/>
<path d="M13.3592 13.8969C13.6911 13.5651 13.988 13.1998 14.2463 12.8064C13.9881 13.1998 13.691 13.5664 13.3592 13.8969Z" fill="#DF5E08"/>
<path d="M6.49756 15.6096C6.68087 15.6658 6.8682 15.714 7.0582 15.7541C6.8682 15.714 6.68221 15.6658 6.49756 15.6096Z" fill="#DF5E08"/>
<path d="M6.22461 15.5199C6.2982 15.5467 6.37313 15.5694 6.44806 15.5935C6.37313 15.5694 6.2982 15.5453 6.22461 15.5199Z" fill="#DF5E08"/>
<path d="M0.926053 12.611C0.883235 12.52 0.840418 12.429 0.800276 12.3367C0.586187 11.8362 0.41893 11.3117 0.305195 10.7671C0.258363 10.5423 0.220898 10.3135 0.19146 10.082L0.0683594 10.0981C0.0977966 10.3322 0.135262 10.5637 0.183432 10.7925C0.299843 11.3452 0.468438 11.8777 0.686541 12.3848C0.726683 12.4785 0.769501 12.5708 0.813656 12.6631L0.926053 12.611Z" fill="url(#paint0_linear_1882_607)"/>
<path fill-rule="evenodd" clip-rule="evenodd" d="M0.717387 12.4554C0.748355 12.525 0.780632 12.5941 0.813656 12.6631L0.926053 12.611C0.925839 12.6106 0.925626 12.6101 0.925412 12.6096C0.892966 12.5407 0.860529 12.4717 0.829263 12.4022C0.819474 12.3804 0.8098 12.3586 0.800276 12.3367C0.586187 11.8362 0.41893 11.3117 0.305195 10.7671C0.263047 10.5648 0.228438 10.3589 0.200491 10.1511C0.197427 10.1283 0.194366 10.1048 0.19146 10.082C0.191486 10.0822 0.191434 10.0818 0.19146 10.082L0.0683594 10.0981C0.0724494 10.1306 0.0766943 10.1631 0.0811014 10.1955C0.108413 10.3965 0.141958 10.5955 0.183432 10.7925C0.203951 10.8899 0.226098 10.9867 0.249845 11.0829C0.304396 11.3037 0.367425 11.5211 0.438754 11.7347C0.512535 11.9556 0.595196 12.1724 0.686541 12.3848C0.686475 12.3847 0.686607 12.385 0.686541 12.3848C0.686639 12.385 0.686936 12.3857 0.687034 12.386C0.696994 12.4092 0.707119 12.4323 0.717387 12.4554Z" fill="#040812"/>
<path d="M14.4255 14.9633C14.2074 15.1814 13.976 15.3861 13.7351 15.5788L13.8127 15.6752C14.0576 15.4785 14.2917 15.2711 14.5139 15.0503C14.9246 14.6395 15.2926 14.1872 15.6124 13.7002L15.5094 13.632C15.1936 14.1123 14.831 14.5579 14.4269 14.9633H14.4255Z" fill="url(#paint1_linear_1882_607)"/>
<path fill-rule="evenodd" clip-rule="evenodd" d="M15.4791 13.6778C15.1705 14.1406 14.818 14.5709 14.4269 14.9633C14.427 14.9632 14.4268 14.9634 14.4269 14.9633H14.4255C14.2209 15.1679 14.0045 15.3608 13.7796 15.5429C13.7648 15.5549 13.75 15.5669 13.7351 15.5788C13.7351 15.5788 13.7351 15.5788 13.7351 15.5788L13.8127 15.6752C13.8183 15.6707 13.8237 15.6663 13.8292 15.6618C14.0359 15.4951 14.2349 15.3206 14.4254 15.1369C14.4259 15.1364 14.4264 15.136 14.4268 15.1355C14.4558 15.1076 14.4846 15.0794 14.5131 15.051C14.5129 15.0512 14.5134 15.0508 14.5131 15.051C14.5132 15.051 14.5139 15.0504 14.5139 15.0503C14.5285 15.0357 14.5432 15.0208 14.5577 15.0061C14.7167 14.8448 14.8691 14.6772 15.0146 14.5038C15.2152 14.2649 15.4027 14.0148 15.5764 13.7546C15.5884 13.7366 15.6005 13.7184 15.6124 13.7002L15.5094 13.632C15.5095 13.6319 15.5093 13.6321 15.5094 13.632C15.4994 13.6472 15.4891 13.6627 15.4791 13.6778Z" fill="#040812"/>
<path d="M5.38701 16.8178C5.00433 16.6653 4.6377 16.4846 4.28579 16.2786L4.2229 16.3856C4.58016 16.5943 4.95348 16.7777 5.34152 16.9329C5.78174 17.1095 6.24203 17.25 6.7157 17.3517L6.74112 17.2313C6.27414 17.1309 5.82188 16.9931 5.38701 16.8191V16.8178Z" fill="url(#paint2_linear_1882_607)"/>
<path fill-rule="evenodd" clip-rule="evenodd" d="M6.7157 17.3517L6.74112 17.2313C6.27414 17.1309 5.82188 16.9931 5.38701 16.8191V16.8178C5.00433 16.6653 4.6377 16.4846 4.28579 16.2786L4.2229 16.3856C4.22284 16.3856 4.22296 16.3856 4.2229 16.3856C4.4954 16.5448 4.77745 16.6893 5.06804 16.8178C5.06902 16.8182 5.07001 16.8187 5.07099 16.8191C5.08609 16.8258 5.10122 16.8324 5.11637 16.839C5.19075 16.8713 5.26602 16.9027 5.34152 16.9329C5.4759 16.9868 5.61216 17.0374 5.75009 17.0845C6.06386 17.1916 6.38678 17.2811 6.7157 17.3517C6.71555 17.3517 6.71585 17.3517 6.7157 17.3517Z" fill="#040812"/>
<path d="M16.2051 5.74409C16.4192 6.24453 16.5865 6.76904 16.7002 7.31363C16.747 7.53843 16.7845 7.76723 16.8139 7.99872L16.9371 7.98267C16.9077 7.74851 16.8701 7.51702 16.822 7.28821C16.7056 6.73559 16.537 6.20305 16.3189 5.69592C16.2787 5.60226 16.2359 5.50993 16.1917 5.41761L16.0793 5.46979C16.1222 5.56078 16.165 5.65177 16.2051 5.74409Z" fill="url(#paint3_linear_1882_607)"/>
<path fill-rule="evenodd" clip-rule="evenodd" d="M16.8139 7.99872L16.9371 7.98267C16.9332 7.95122 16.929 7.91981 16.9247 7.88845C16.8973 7.68639 16.8636 7.48626 16.822 7.28821C16.8015 7.19079 16.7793 7.09399 16.7556 6.99785C16.701 6.77701 16.638 6.55962 16.5667 6.34604C16.4929 6.12513 16.4102 5.9083 16.3189 5.69592C16.319 5.69606 16.3188 5.69577 16.3189 5.69592C16.3188 5.69571 16.3185 5.69506 16.3184 5.69485C16.3076 5.66969 16.2966 5.64462 16.2855 5.61962C16.2553 5.55194 16.2239 5.48477 16.1917 5.41761L16.0793 5.46979C16.0795 5.47023 16.0797 5.47067 16.0799 5.47112C16.1114 5.53789 16.1428 5.60466 16.1732 5.67197C16.184 5.69593 16.1946 5.71996 16.2051 5.74409C16.4192 6.24453 16.5865 6.76904 16.7002 7.31363C16.7426 7.51714 16.7774 7.72416 16.8054 7.93327C16.8083 7.95486 16.8112 7.97707 16.8139 7.99872C16.8139 7.99852 16.8139 7.99891 16.8139 7.99872Z" fill="#040812"/>
<path d="M11.6183 1.26302C11.9996 1.41689 12.3676 1.59753 12.7195 1.80225L12.7824 1.69521C12.4251 1.48647 12.0518 1.30316 11.6638 1.14794C11.2222 0.971315 10.7633 0.830758 10.2896 0.729066L10.2642 0.849551C10.7311 0.949905 11.1834 1.08773 11.6183 1.26168V1.26302Z" fill="url(#paint4_linear_1882_607)"/>
<path fill-rule="evenodd" clip-rule="evenodd" d="M10.2896 0.729066L10.2642 0.849551C10.7311 0.949905 11.1834 1.08773 11.6183 1.26168V1.26302C11.9996 1.41689 12.3676 1.59753 12.7195 1.80225L12.7824 1.69521C12.7826 1.6953 12.7822 1.69511 12.7824 1.69521C12.5099 1.53606 12.2277 1.39142 11.9372 1.26302M11.6638 1.14794C11.6638 1.14794 11.6638 1.14793 11.6638 1.14794C11.5292 1.0941 11.3929 1.04362 11.2552 0.996566C10.9412 0.889321 10.6187 0.799742 10.2896 0.729066C10.2898 0.7291 10.2894 0.729033 10.2896 0.729066" fill="#040812"/>
<path d="M0.19146 10.082C0.148642 9.74077 0.125777 9.39297 0.125777 9.03973C0.125777 8.47908 0.181976 7.93182 0.286344 7.40195C0.388036 6.89081 0.535222 6.39707 0.725226 5.92473C0.931287 5.41092 1.18686 4.92253 1.48524 4.46491L1.49595 4.44752L1.39292 4.37928L1.38087 4.39667C1.07714 4.86098 0.817552 5.35606 0.608815 5.8779C0.416135 6.35826 0.266273 6.85869 0.163243 7.37786C0.0561983 7.91576 0 8.47105 0 9.03973C0 9.39832 0.022747 9.75023 0.0655647 10.0968L0.188666 10.0807L0.19146 10.082Z" fill="#FF59DC"/>
<path d="M4.28579 16.2786C4.16403 16.2077 4.04488 16.1341 3.92713 16.0578C3.44008 15.7393 2.98916 15.3727 2.57971 14.9633C2.19167 14.5752 1.84244 14.1484 1.53603 13.6908C1.30722 13.3482 1.10401 12.987 0.926053 12.611L0.813656 12.6631C0.994293 13.0445 1.20017 13.4111 1.43166 13.759C1.74209 14.2233 2.09801 14.6568 2.4914 15.0502C2.9062 15.465 3.36515 15.837 3.85889 16.1595C3.97798 16.2371 4.09974 16.312 4.22284 16.3843L4.28573 16.2772L4.28579 16.2786Z" fill="#FF5BDC"/>
<path d="M13.7351 15.5802C13.5478 15.7301 13.3538 15.8746 13.1531 16.0084C12.7276 16.2934 12.274 16.5396 11.799 16.7443C11.2985 16.9584 10.774 17.1256 10.2294 17.2394C9.67281 17.3558 9.09477 17.4173 8.50335 17.4173C7.9427 17.4173 7.39544 17.3611 6.86557 17.2568C6.82409 17.2488 6.78261 17.2394 6.74246 17.2314L6.71704 17.3518C6.75852 17.3611 6.8 17.3705 6.84282 17.3785C7.38072 17.4856 7.93601 17.5418 8.50468 17.5418C9.10547 17.5418 9.69154 17.4789 10.2562 17.3611C10.8088 17.2447 11.3414 17.0761 11.8485 16.858C12.3315 16.6506 12.7918 16.4004 13.2227 16.1114C13.4261 15.9749 13.6227 15.8291 13.8128 15.6765L13.7351 15.5802Z" fill="#FF59DC"/>
<path d="M16.9371 7.98267L16.8139 7.99872C16.8567 8.33992 16.8783 8.68783 16.8783 9.04107C16.8783 9.60172 16.8235 10.149 16.7178 10.6788C16.6161 11.19 16.4689 11.6837 16.2789 12.1561C16.0728 12.6699 15.8173 13.1583 15.5189 13.6159L15.5068 13.6333L15.6099 13.7015L15.6219 13.6841C15.9256 13.2198 16.1852 12.7234 16.394 12.2029C16.5866 11.7239 16.7365 11.2221 16.8395 10.7029C16.9466 10.165 17.0028 9.60975 17.0028 9.04107C17.0028 8.68247 16.98 8.33057 16.9372 7.98401L16.9371 7.98267Z" fill="#FF59DC"/>
<path d="M12.7195 1.80225C12.8412 1.87317 12.9603 1.94675 13.0781 2.02302C13.5651 2.34148 14.0161 2.70811 14.4255 3.11755C14.8135 3.50559 15.1641 3.93243 15.4692 4.39004C15.698 4.73259 15.9014 5.09379 16.0793 5.46979L16.1917 5.41761C16.0111 5.03627 15.805 4.6697 15.5736 4.3218C15.2631 3.8575 14.9072 3.42397 14.5138 3.03058C14.099 2.61578 13.6401 2.2438 13.1463 1.92133C13.0272 1.84372 12.9068 1.76879 12.7837 1.69654L12.7208 1.80358L12.7195 1.80225Z" fill="#FF59DC"/>
<path d="M3.27022 2.502C3.45755 2.35214 3.65157 2.20763 3.85094 2.07383C4.27644 1.78882 4.73004 1.54262 5.20505 1.3379C5.70549 1.12381 6.23 0.956546 6.77459 0.842811C7.33122 0.7264 7.90926 0.66485 8.50069 0.66485C9.06133 0.66485 9.6086 0.721048 10.1385 0.825417C10.1799 0.833445 10.2214 0.842811 10.2616 0.852178L10.287 0.731753C10.2455 0.722386 10.204 0.714358 10.1612 0.704992C9.62331 0.597947 9.06802 0.541749 8.49935 0.541749C7.89856 0.541749 7.31249 0.604637 6.74649 0.722386C6.19388 0.838797 5.66133 1.00739 5.15421 1.2255C4.67117 1.43156 4.21088 1.68311 3.78002 1.97213C3.57664 2.10862 3.38128 2.25446 3.18994 2.407L3.26755 2.50334L3.27022 2.502Z" fill="#FF59DC"/>
<path d="M2.57968 3.11749C2.79778 2.89939 3.02937 2.69468 3.27022 2.502L3.19251 2.40564C2.94764 2.601 2.71348 2.80974 2.49137 3.03052C2.08058 3.4413 1.71272 3.89358 1.39292 4.38063L1.49585 4.44886C1.81163 3.96849 2.17425 3.52292 2.57834 3.11883L2.57968 3.11749Z" fill="url(#paint5_linear_1882_607)"/>
<path fill-rule="evenodd" clip-rule="evenodd" d="M3.27022 2.502C3.27007 2.50212 3.27037 2.50188 3.27022 2.502C3.25423 2.51479 3.23772 2.52798 3.22182 2.54087C2.9983 2.72215 2.78316 2.914 2.57968 3.11749L2.57834 3.11883C2.18831 3.50885 1.83692 3.93752 1.52899 4.39883C1.51798 4.41532 1.50685 4.43094 1.49595 4.44752C1.49586 4.44766 1.49604 4.44738 1.49595 4.44752L1.39292 4.38063C1.40566 4.36122 1.41838 4.34185 1.43128 4.32255C1.60427 4.06369 1.79096 3.81485 1.99054 3.57705C2.13609 3.40362 2.28849 3.23606 2.44743 3.07478C2.4618 3.06019 2.47689 3.04499 2.49137 3.03052C2.69432 2.82883 2.90799 2.63653 3.13003 2.45596C3.15078 2.43909 3.1716 2.42231 3.19251 2.40564L3.27022 2.502Z" fill="#040812"/>
<path d="M9.96313 16.2051C9.96313 16.0137 10.1183 15.8585 10.3097 15.8585C10.501 15.8585 10.6562 16.0137 10.6562 16.2051C10.6562 16.3964 10.501 16.5516 10.3097 16.5516C10.1183 16.5516 9.96313 16.3964 9.96313 16.2051Z" fill="#F8F8F7"/>
<path d="M6.44946 1.87708C6.44946 1.68574 6.60468 1.53052 6.79602 1.53052C6.98736 1.53052 7.14258 1.68574 7.14258 1.87708C7.14258 2.06842 6.98736 2.22364 6.79602 2.22364C6.60468 2.22364 6.44946 2.06842 6.44946 1.87708Z" fill="#F8F8F7"/>
<path d="M0.905762 7.74182C0.905762 7.55048 1.06098 7.39527 1.25232 7.39527C1.44366 7.39527 1.59887 7.55048 1.59887 7.74182C1.59887 7.93317 1.44366 8.08838 1.25232 8.08838C1.06098 8.08838 0.905762 7.93317 0.905762 7.74182Z" fill="#F8F8F7"/>
<path d="M2.83667 14.1511C2.83667 13.9598 2.99188 13.8046 3.18323 13.8046C3.37457 13.8046 3.52978 13.9598 3.52978 14.1511C3.52978 14.3425 3.37457 14.4977 3.18323 14.4977C2.99188 14.4977 2.83667 14.3425 2.83667 14.1511Z" fill="#F8F8F7"/>
<path d="M15.3086 10.7364C15.3086 10.5451 15.4638 10.3899 15.6552 10.3899C15.8465 10.3899 16.0017 10.5451 16.0017 10.7364C16.0017 10.9278 15.8465 11.083 15.6552 11.083C15.4638 11.083 15.3086 10.9278 15.3086 10.7364Z" fill="#F8F8F7"/>
<path d="M13.6013 4.12903C13.6013 3.93769 13.7565 3.78248 13.9479 3.78248C14.1392 3.78248 14.2944 3.93769 14.2944 4.12903C14.2944 4.32037 14.1392 4.47559 13.9479 4.47559C13.7565 4.47559 13.6013 4.32037 13.6013 4.12903Z" fill="#F8F8F7"/>
<path d="M13.0995 12.0383C13.2988 11.7332 13.4648 11.4121 13.5959 11.0816C13.7217 10.7672 13.8168 10.442 13.8823 10.1142C13.9519 9.76096 13.988 9.40101 13.988 9.04108C13.988 8.66241 13.9479 8.28375 13.8703 7.91043C13.7967 7.55985 13.6896 7.21598 13.5464 6.8828C13.4153 6.57639 13.256 6.278 13.0674 5.99433C13.0232 5.92877 12.9777 5.8632 12.9295 5.79898C12.9148 5.77891 12.9001 5.76017 12.8854 5.7401C12.8506 5.69461 12.8158 5.64778 12.7783 5.60362C12.7623 5.58355 12.7462 5.56214 12.7288 5.54207C12.682 5.48587 12.6352 5.43101 12.5857 5.37615L12.5696 5.35742C12.5094 5.29052 12.4478 5.22495 12.3836 5.16206C12.3154 5.09382 12.2471 5.02826 12.1762 4.96537L12.1588 4.94931C12.0999 4.89713 12.0411 4.84628 11.9809 4.79677C11.9595 4.77938 11.938 4.76198 11.9166 4.74459C11.8685 4.70712 11.8203 4.66966 11.7721 4.63353C11.7507 4.61747 11.7306 4.60276 11.7092 4.5867C11.641 4.53719 11.5714 4.48902 11.5018 4.44353C11.1968 4.24416 10.8756 4.07958 10.5451 3.94711C10.2307 3.82133 9.90554 3.72633 9.57771 3.66076C9.22447 3.59119 8.86453 3.55506 8.50593 3.55506C8.12726 3.55506 7.74859 3.5952 7.37527 3.67281C7.0247 3.7464 6.68082 3.85344 6.34765 3.99662C6.04123 4.12775 5.74285 4.28697 5.45918 4.47564C5.16481 4.67233 4.88515 4.8998 4.62557 5.15939C4.35127 5.43369 4.11309 5.7294 3.90971 6.0425C3.71034 6.34758 3.54576 6.66871 3.41329 6.99921C3.28751 7.31366 3.19251 7.63881 3.12695 7.96663C3.05737 8.31988 3.02124 8.67981 3.02124 9.03841C3.02124 9.41708 3.06138 9.79575 3.13899 10.1691C3.21258 10.5196 3.31963 10.8635 3.4628 11.1967C3.59393 11.5031 3.75316 11.8015 3.94316 12.0852C3.98732 12.1507 4.03281 12.2163 4.08098 12.2805C4.0957 12.3006 4.11042 12.3193 4.12514 12.3394C4.15993 12.3849 4.19472 12.4317 4.23218 12.4759C4.24824 12.4959 4.26429 12.516 4.28169 12.5374C4.32852 12.5936 4.37535 12.6485 4.42486 12.7033C4.49043 12.7756 4.55733 12.8478 4.62825 12.9188C4.90255 13.1931 5.19826 13.4312 5.51136 13.6346C5.81644 13.834 6.13757 13.9986 6.46807 14.131C6.78252 14.2568 7.10766 14.3518 7.43549 14.4174C7.78873 14.487 8.14867 14.5231 8.50861 14.5231C8.88728 14.5231 9.26595 14.483 9.63926 14.4053C9.98984 14.3318 10.3337 14.2247 10.6669 14.0815C10.9733 13.9504 11.2717 13.7912 11.5554 13.6025C11.8497 13.4058 12.1294 13.1783 12.389 12.9188C12.6633 12.6445 12.9014 12.3488 13.1048 12.0356L13.0995 12.0383ZM12.9697 5.85651C12.9603 5.84313 12.951 5.82975 12.9416 5.81503C12.951 5.82842 12.9603 5.8418 12.9697 5.85651ZM12.8653 5.71334C12.8399 5.67989 12.8145 5.64778 12.789 5.61433C12.8145 5.64644 12.8399 5.67989 12.8653 5.71334ZM11.6892 4.57466C11.6758 4.56529 11.6611 4.55592 11.6463 4.54522C11.6597 4.55459 11.6744 4.56395 11.6892 4.57466ZM4.03549 12.2243C4.04485 12.2377 4.05422 12.2524 4.06492 12.2658C4.05556 12.2524 4.04619 12.2377 4.03549 12.2243ZM4.14119 12.3675C4.16662 12.4009 4.19204 12.433 4.21746 12.4665C4.19204 12.4344 4.16662 12.4009 4.14119 12.3675ZM4.28169 12.5454C4.32584 12.599 4.37134 12.6512 4.41817 12.7047C4.37134 12.6525 4.32584 12.599 4.28169 12.5454Z" fill="#FF59DC"/>
<path d="M13.7578 7.93456C13.6842 7.58533 13.5772 7.24947 13.4394 6.92834C13.3082 6.62326 13.1503 6.33291 12.967 6.06128C12.7703 5.76825 12.5469 5.49528 12.298 5.2464C12.0357 4.98415 11.7454 4.74999 11.4336 4.5466C11.1406 4.35526 10.8275 4.19068 10.4983 4.05821C10.1946 3.93645 9.8788 3.84145 9.55232 3.77588C9.47605 3.76116 9.39978 3.74778 9.32217 3.73574C9.29809 3.73173 9.274 3.72905 9.24992 3.72504C9.19372 3.71701 9.13752 3.71032 9.08132 3.70363C9.0559 3.70095 9.03047 3.69827 9.00505 3.6956C8.93413 3.68891 8.86322 3.68356 8.79096 3.67954H8.76688C8.67857 3.67285 8.59159 3.67151 8.50194 3.67151C8.40828 3.67151 8.31461 3.67419 8.22229 3.6782H8.19954C8.12327 3.68356 8.047 3.69025 7.97073 3.69827C7.94397 3.70095 7.91721 3.70363 7.89045 3.70764C7.83158 3.71433 7.7727 3.72236 7.71383 3.73173C7.6884 3.73574 7.66298 3.73842 7.63756 3.74243C7.55594 3.75581 7.47565 3.77053 7.39537 3.78659C7.04614 3.86018 6.71029 3.96722 6.38915 4.10504C6.08408 4.23617 5.79372 4.39406 5.52075 4.57738C5.22772 4.77407 4.95476 4.99753 4.70588 5.2464C4.44362 5.50866 4.20946 5.79902 4.00607 6.10945C3.81473 6.40249 3.65015 6.71559 3.51902 7.04475C3.39726 7.34849 3.30092 7.66427 3.23669 7.99076C3.16845 8.33062 3.13232 8.68119 3.13232 9.04113C3.13232 9.42114 3.17247 9.79043 3.2474 10.1477C3.32099 10.4969 3.42803 10.8328 3.56585 11.1539C3.69698 11.459 3.85487 11.7493 4.03819 12.021C4.23488 12.314 4.45834 12.587 4.70722 12.8358C4.96947 13.0981 5.25983 13.3323 5.5716 13.5357C5.86463 13.727 6.17774 13.8916 6.5069 14.0227C6.8093 14.1445 7.12642 14.2408 7.45291 14.305C7.52918 14.3198 7.60545 14.3331 7.68305 14.3452C7.70714 14.3492 7.73122 14.3519 7.75531 14.3559C7.81151 14.3639 7.8677 14.3706 7.9239 14.3773C7.94933 14.38 7.97475 14.3826 8.00017 14.3853C8.07109 14.392 8.14201 14.3974 8.21426 14.4014C8.30926 14.4067 8.40694 14.4094 8.50328 14.4094C8.88195 14.4094 9.25259 14.3693 9.60985 14.2943C9.95909 14.2207 10.2949 14.1137 10.6161 13.9759C10.9211 13.8447 11.2115 13.6869 11.4831 13.5035C11.7762 13.3068 12.0491 13.0834 12.298 12.8345C12.5603 12.5722 12.7944 12.2819 12.9978 11.9701C13.1892 11.6771 13.3537 11.364 13.4862 11.0348C13.608 10.7311 13.703 10.4153 13.7685 10.0888C13.8354 9.74896 13.8729 9.39839 13.8729 9.03846C13.8729 8.65979 13.8328 8.28914 13.7578 7.93188V7.93456ZM9.21914 3.71968C9.179 3.71433 9.13886 3.70898 9.09872 3.70496C9.13886 3.71032 9.179 3.71433 9.21914 3.71968ZM8.99836 3.69426C8.93146 3.68757 8.86322 3.68222 8.79498 3.67954C8.86322 3.68356 8.93146 3.68891 8.99836 3.69426ZM7.87573 3.70898C7.83291 3.71433 7.7901 3.71968 7.74862 3.72504C7.79143 3.71835 7.83291 3.71299 7.87573 3.70898ZM7.61481 14.3345C7.63087 14.3371 7.64692 14.3398 7.66432 14.3425C7.64826 14.3398 7.63221 14.3371 7.61481 14.3345ZM7.78742 14.3612C7.82756 14.3666 7.8677 14.3719 7.90918 14.3759C7.86904 14.3706 7.82756 14.3666 7.78742 14.3612Z" fill="#DF5E08"/>
<defs>
<linearGradient id="paint0_linear_1882_607" x1="-2.53074" y1="9.10137" x2="3.4964" y2="3.72837" gradientUnits="userSpaceOnUse">
<stop stop-color="#8F8D90"/>
<stop offset="0.08" stop-color="#9C9A9D"/>
<stop offset="0.37" stop-color="#C6C5C7"/>
<stop offset="0.63" stop-color="#E5E5E5"/>
<stop offset="0.85" stop-color="#F8F8F8"/>
<stop offset="1" stop-color="white"/>
</linearGradient>
<linearGradient id="paint1_linear_1882_607" x1="12.7116" y1="11.849" x2="6.73403" y2="5.34227" gradientUnits="userSpaceOnUse">
<stop stop-color="#8F8D90"/>
<stop offset="0.08" stop-color="#9C9A9D"/>
<stop offset="0.37" stop-color="#C6C5C7"/>
<stop offset="0.63" stop-color="#E5E5E5"/>
<stop offset="0.85" stop-color="#F8F8F8"/>
<stop offset="1" stop-color="white"/>
</linearGradient>
<linearGradient id="paint2_linear_1882_607" x1="8.44698" y1="13.5775" x2="12.9358" y2="8.62338" gradientUnits="userSpaceOnUse">
<stop stop-color="#8F8D90"/>
<stop offset="0.08" stop-color="#9C9A9D"/>
<stop offset="0.37" stop-color="#C6C5C7"/>
<stop offset="0.63" stop-color="#E5E5E5"/>
<stop offset="0.85" stop-color="#F8F8F8"/>
<stop offset="1" stop-color="white"/>
</linearGradient>
<linearGradient id="paint3_linear_1882_607" x1="18.0991" y1="7.65751" x2="5.37537" y2="16.4975" gradientUnits="userSpaceOnUse">
<stop stop-color="#8F8D90"/>
<stop offset="0.08" stop-color="#9C9A9D"/>
<stop offset="0.37" stop-color="#C6C5C7"/>
<stop offset="0.63" stop-color="#E5E5E5"/>
<stop offset="0.85" stop-color="#F8F8F8"/>
<stop offset="1" stop-color="white"/>
</linearGradient>
<linearGradient id="paint4_linear_1882_607" x1="9.54796" y1="-1.58093" x2="1.63864" y2="6.58095" gradientUnits="userSpaceOnUse">
<stop stop-color="#8F8D90"/>
<stop offset="0.08" stop-color="#9C9A9D"/>
<stop offset="0.37" stop-color="#C6C5C7"/>
<stop offset="0.63" stop-color="#E5E5E5"/>
<stop offset="0.85" stop-color="#F8F8F8"/>
<stop offset="1" stop-color="white"/>
</linearGradient>
<linearGradient id="paint5_linear_1882_607" x1="2.24045" y1="4.2766" x2="9.17109" y2="11.2641" gradientUnits="userSpaceOnUse">
<stop stop-color="#8F8D90"/>
<stop offset="0.08" stop-color="#9C9A9D"/>
<stop offset="0.37" stop-color="#C6C5C7"/>
<stop offset="0.63" stop-color="#E5E5E5"/>
<stop offset="0.85" stop-color="#F8F8F8"/>
<stop offset="1" stop-color="white"/>
</linearGradient>
</defs>
</svg>
