<svg width="80" height="80" viewBox="0 0 80 80" fill="none" xmlns="http://www.w3.org/2000/svg">
<rect width="80" height="80" rx="10" fill="url(#paint0_linear_355_444)"/>
<path d="M56.6667 51.6667V56.6667H23.3333V51.6667C23.3333 50.75 24.0833 50 25 50H55C55.9167 50 56.6667 50.75 56.6667 51.6667Z" fill="white" stroke="white" stroke-width="1.5" stroke-miterlimit="10" stroke-linecap="round" stroke-linejoin="round"/>
<path d="M31.6667 38.3333H28.3333V50H31.6667V38.3333Z" fill="white"/>
<path d="M38.3333 38.3333H35V50H38.3333V38.3333Z" fill="white"/>
<path d="M45 38.3333H41.6667V50H45V38.3333Z" fill="white"/>
<path d="M51.6667 38.3333H48.3333V50H51.6667V38.3333Z" fill="white"/>
<path d="M58.3333 57.9167H21.6667C20.9833 57.9167 20.4167 57.35 20.4167 56.6667C20.4167 55.9834 20.9833 55.4167 21.6667 55.4167H58.3333C59.0167 55.4167 59.5833 55.9834 59.5833 56.6667C59.5833 57.35 59.0167 57.9167 58.3333 57.9167Z" fill="white"/>
<path d="M55.6167 29.5833L40.6167 23.5833C40.2833 23.45 39.7167 23.45 39.3833 23.5833L24.3833 29.5833C23.8 29.8167 23.3333 30.5 23.3333 31.1333V36.6667C23.3333 37.5833 24.0833 38.3333 25 38.3333H55C55.9167 38.3333 56.6667 37.5833 56.6667 36.6667V31.1333C56.6667 30.5 56.2 29.8167 55.6167 29.5833ZM40 34.1667C38.6167 34.1667 37.5 33.05 37.5 31.6667C37.5 30.2833 38.6167 29.1667 40 29.1667C41.3833 29.1667 42.5 30.2833 42.5 31.6667C42.5 33.05 41.3833 34.1667 40 34.1667Z" fill="white"/>
<defs>
<linearGradient id="paint0_linear_355_444" x1="-7.06085e-06" y1="86" x2="55.0324" y2="-12.0181" gradientUnits="userSpaceOnUse">
<stop stop-color="#633F89"/>
<stop offset="0.570864" stop-color="#8F7D4B"/>
<stop offset="1" stop-color="#45F882"/>
</linearGradient>
</defs>
</svg>
