<svg width="80" height="80" viewBox="0 0 80 80" fill="none" xmlns="http://www.w3.org/2000/svg">
<rect width="80" height="80" rx="10" fill="url(#paint0_linear_355_458)"/>
<path d="M43.55 38.9C44.2 36.1667 41.8167 33.7833 39.0833 34.4333C37.8 34.75 36.75 35.8 36.4333 37.0833C35.7833 39.8167 38.1667 42.2 40.9 41.55C42.2 41.2333 43.25 40.1833 43.55 38.9Z" fill="white"/>
<path d="M30.0333 49.95C29.7333 49.95 29.4166 49.8333 29.1833 49.6167C25.95 46.6167 24.1 42.3833 24.1 37.9833C24.1 29.2167 31.2333 22.0833 40 22.0833C48.7666 22.0833 55.9 29.2167 55.9 37.9833C55.9 42.4167 54.1166 46.5167 50.8833 49.5667C50.3833 50.0333 49.5833 50.0167 49.1166 49.5167C48.65 49.0167 48.6666 48.2167 49.1666 47.75C51.9 45.1833 53.4 41.7333 53.4 38C53.4 30.6167 47.3833 24.6 40 24.6C32.6166 24.6 26.6 30.6167 26.6 38C26.6 41.7667 28.1166 45.2333 30.8833 47.8C31.3833 48.2667 31.4166 49.0667 30.95 49.5667C30.7 49.8167 30.3666 49.95 30.0333 49.95Z" fill="white"/>
<path d="M46.6666 45.5C46.3666 45.5 46.05 45.3833 45.8166 45.1667C45.3166 44.7 45.2833 43.9 45.7666 43.4C47.15 41.9333 47.9166 40 47.9166 38C47.9166 33.6333 44.3666 30.1 40.0166 30.1C35.6666 30.1 32.1166 33.65 32.1166 38C32.1166 40.0167 32.8833 41.9333 34.2666 43.4C34.7333 43.9 34.7166 44.7 34.2166 45.1667C33.7166 45.65 32.9166 45.6167 32.45 45.1167C30.6333 43.1833 29.6166 40.65 29.6166 38C29.6166 32.2667 34.2833 27.6 40.0166 27.6C45.75 27.6 50.4166 32.2667 50.4166 38C50.4166 40.65 49.4166 43.1833 47.5833 45.1167C47.3333 45.3667 47 45.5 46.6666 45.5Z" fill="white"/>
<path d="M37.1667 47.7667L34.7667 50.75C32.8667 53.1333 34.5667 56.6667 37.6 56.6667H42.3833C45.4333 56.6667 47.1333 53.1333 45.2167 50.7667L42.8167 47.7833C41.3833 45.95 38.6167 45.95 37.1667 47.7667Z" fill="white"/>
<defs>
<linearGradient id="paint0_linear_355_458" x1="4.36364" y1="66.9091" x2="55.5143" y2="-0.665687" gradientUnits="userSpaceOnUse">
<stop offset="0.058745" stop-color="#633F89"/>
<stop offset="0.489578" stop-color="#9D3EA6"/>
<stop offset="1" stop-color="#FB3AD4"/>
<stop offset="1" stop-color="#FF00EE" stop-opacity="0.26"/>
</linearGradient>
</defs>
</svg>
