<svg viewBox="0 0 28 23" xmlns="http://www.w3.org/2000/svg">
	<path d="M13.4106 20.8083L5.36673 12.6878C5.26033 12.5804 5.11542 12.52 4.96423 12.52H1.84503C1.34158 12.52 1.08822 13.1276 1.44252 13.4852L9.48642 21.6057C9.59281 21.7131 9.73773 21.7736 9.88892 21.7736H13.0081C13.5116 21.7736 13.7649 21.166 13.4106 20.8083Z" stroke="white"/>
	<path d="M12.6803 9.57324H24.71C25.7116 9.57324 26.5234 10.3851 26.5234 11.3866C26.5234 12.3882 25.7116 13.2 24.71 13.2H12.6803C11.6788 13.2 10.8669 12.3882 10.8669 11.3866C10.8669 10.3851 11.6788 9.57324 12.6803 9.57324Z" stroke="white"/>
	<path d="M1.44252 9.28834L9.48641 1.16784C9.59281 1.06043 9.73772 1 9.88891 1H13.0081C13.5116 1 13.7649 1.60758 13.4106 1.96525L5.36672 10.0858C5.26033 10.1932 5.11541 10.2536 4.96422 10.2536H1.84502C1.34158 10.2536 1.08822 9.64601 1.44252 9.28834Z" stroke="white"/>
</svg>