<svg viewBox="0 0 39 35" xmlns="http://www.w3.org/2000/svg">
	<path d="M15.8994 15.9192L30.3844 1.29625C30.5722 1.10666 30.828 1 31.0948 1H36.6005C37.4891 1 37.9363 2.07243 37.3109 2.70375L23.5198 16.6262C23.1324 17.0173 23.1339 17.6479 23.5231 18.0371L37.2915 31.8055C37.9215 32.4354 37.4753 33.5126 36.5844 33.5126H31.0921C30.8268 33.5126 30.5725 33.4072 30.385 33.2197L15.9061 18.7409C15.1277 17.9624 15.1247 16.7013 15.8994 15.9192Z" stroke="#D4D5F1"/>
	<path d="M1.39941 15.9192L15.8844 1.29625C16.0722 1.10666 16.328 1 16.5948 1H22.1005C22.9891 1 23.4363 2.07243 22.8109 2.70375L9.01975 16.6262C8.63238 17.0173 8.63387 17.6479 9.02309 18.0371L22.7915 31.8055C23.4215 32.4354 22.9753 33.5126 22.0844 33.5126H16.5921C16.3268 33.5126 16.0725 33.4072 15.885 33.2197L1.4061 18.7409C0.627665 17.9624 0.624678 16.7013 1.39941 15.9192Z" stroke="#D4D5F1"/>
</svg>