<svg viewBox="0 0 39 35" xmlns="http://www.w3.org/2000/svg">
	<path d="M23.1006 15.9192L8.61562 1.29625C8.42782 1.10666 8.17202 1 7.90522 1H2.39952C1.51092 1 1.06372 2.07243 1.68912 2.70375L15.4802 16.6262C15.8676 17.0173 15.8661 17.6479 15.4769 18.0371L1.70852 31.8055C1.07852 32.4354 1.52472 33.5126 2.41562 33.5126H7.90792C8.17322 33.5126 8.42752 33.4072 8.61502 33.2197L23.0939 18.7409C23.8723 17.9624 23.8753 16.7013 23.1006 15.9192Z" stroke="#D4D5F1"/>
	<path d="M37.6006 15.9192L23.1156 1.29625C22.9278 1.10666 22.672 1 22.4052 1H16.8995C16.0109 1 15.5637 2.07243 16.1891 2.70375L29.9802 16.6262C30.3676 17.0173 30.3661 17.6479 29.9769 18.0371L16.2085 31.8055C15.5785 32.4354 16.0247 33.5126 16.9156 33.5126H22.4079C22.6732 33.5126 22.9275 33.4072 23.115 33.2197L37.5939 18.7409C38.3723 17.9624 38.3753 16.7013 37.6006 15.9192Z" stroke="#D4D5F1"/>
</svg>