<svg viewBox="0 0 711 458" fill="none" xmlns="http://www.w3.org/2000/svg">
<g opacity="0.9" filter="url(#filter0_f_1326_923)">
<ellipse cx="355.5" cy="365.243" rx="309.5" ry="46" fill="url(#paint0_linear_1326_923)"/>
</g>
<rect x="295.723" y="174.405" width="130.227" height="46.257" rx="23.1285" transform="rotate(9.34365 295.723 174.405)" fill="url(#paint1_linear_1326_923)"/>
<path d="M356.746 210.688C362.686 208.465 379.673 200.78 390.915 205.149C401.714 209.32 381.818 215.88 375.829 218.102L356.746 210.688ZM293.299 183.155C329.338 169.624 387.442 169.826 423.043 183.629C458.694 197.432 458.333 219.606 422.294 233.137C386.254 246.668 328.151 246.466 292.55 232.63C256.899 218.86 257.26 196.686 293.299 183.155ZM311.74 200.103C309.859 200.844 308.027 201.553 306.245 202.23L306.196 202.197L294.067 206.772L303.337 210.38C303.337 210.38 309.724 207.898 309.723 207.996C313.287 206.675 316.497 207.018 318.569 207.584L357.672 222.744C358.608 223.239 359.74 224.159 357.264 225.094C357.462 225.095 350.878 227.51 350.878 227.51L359.501 232.192L370.936 227.908C373.065 227.102 375.193 226.329 377.272 225.556L391.72 231.15L400.482 227.864L386.182 222.336C388.657 221.435 390.984 220.597 393.261 219.727L407.462 225.222L416.274 221.936L401.876 216.343C415.79 210.471 422.487 205.149 410.017 199.369C400.011 194.712 389.833 194.758 379.445 197.154C381.979 194.26 380.661 191.314 372.374 188.658C361.078 185.04 348.666 187.099 336.343 190.954L322.093 185.427L313.281 188.712L327.186 194.108C324.86 194.977 322.582 195.88 320.255 196.783L306.252 191.256L297.49 194.542L311.74 200.103ZM359.884 196.236C349.627 192.264 335.611 198.724 330.661 200.592L348.018 207.312C352.968 205.443 369.696 200.043 359.884 196.236ZM272.343 175.045C320.065 157.1 396.992 157.4 444.181 175.704C491.371 193.976 490.923 223.367 443.201 241.279C395.479 259.191 318.551 258.925 271.362 240.62C224.173 222.316 224.621 192.99 272.343 175.045ZM261.056 207.94C261.002 218.456 271.278 228.275 290.015 235.524C307.915 242.442 331.66 246.353 356.907 246.484C382.154 246.614 406.482 242.919 424.749 236.056C443.858 228.872 454.432 219.064 454.487 208.45C454.542 197.836 444.265 188.115 425.528 180.866C407.628 173.948 383.883 170.037 358.636 169.906C333.389 169.776 309.061 173.471 290.794 180.333C271.686 187.485 261.111 197.294 261.056 207.94Z" fill="#070710"/>
<path opacity="0.9" d="M479.047 329.805C479.047 329.374 478.869 328.987 478.589 328.702C478.791 327.632 479.024 326.565 479.024 325.474V313.151C479.024 312.739 478.845 312.378 478.586 312.095C478.791 311.017 479.024 309.942 479.024 308.842V296.519C479.024 296.103 478.845 295.736 478.582 295.453C478.791 294.365 479.024 293.28 479.024 292.169V279.84C479.024 279.425 478.845 279.058 478.582 278.775C478.791 277.687 479.024 276.602 479.024 275.491V263.168C479.024 262.754 478.845 262.389 478.584 262.106C478.791 261.023 479.024 259.941 479.024 258.835V246.513C479.024 246.167 478.845 245.888 478.656 245.627C478.886 244.487 479.024 243.338 479.024 242.18V229.834C479.024 229.42 478.845 229.057 478.584 228.774C478.791 227.692 479.024 226.612 479.024 225.507V207.785C479.024 207.725 478.966 207.689 478.959 207.631C478.088 180.93 424.245 160.036 356.239 160.036C288.132 160.036 234.22 180.988 233.496 207.785V208.296C233.496 208.544 233.578 208.783 233.588 209.031C233.575 209.113 233.496 209.165 233.496 209.251V225.507C233.496 226.612 233.729 227.692 233.935 228.774C233.675 229.057 233.496 229.42 233.496 229.834V242.18C233.496 243.286 233.729 244.368 233.936 245.451C233.675 245.733 233.496 246.098 233.496 246.513V258.835C233.496 259.942 233.729 261.023 233.936 262.106C233.675 262.389 233.496 262.754 233.496 263.168V275.491C233.496 276.602 233.729 277.687 233.938 278.775C233.675 279.058 233.496 279.425 233.496 279.84V292.169C233.496 293.274 233.729 294.354 233.935 295.436C233.675 295.718 233.496 296.082 233.496 296.496V308.818C233.496 309.923 233.722 311.011 233.932 312.1C233.675 312.381 233.496 312.741 233.496 313.151V325.474C233.496 326.629 233.651 327.77 233.877 328.905C233.676 329.171 233.496 329.465 233.496 329.823V342.152C233.496 343.257 233.729 344.337 233.935 345.419C233.675 345.701 233.496 346.065 233.496 346.479V358.825C233.496 383.869 287.42 403.485 356.26 403.485C425.099 403.485 479.023 383.869 479.023 358.825V346.479C479.023 346.122 478.844 345.83 478.644 345.566C478.869 344.429 479.046 343.287 479.046 342.129L479.047 329.805ZM356.239 163.2C421.507 163.2 475.148 183.221 475.809 207.784V208.295C475.809 208.418 475.824 208.535 475.85 208.652C475.343 233.351 421.89 253.389 356.26 253.389C290.315 253.389 236.666 233.157 236.666 208.295L236.663 207.826C237.328 183.221 290.968 163.2 356.239 163.2ZM356.26 256.554C415.456 256.554 463.521 240.861 475.853 219.261V225.506C475.853 248.387 422.204 267.001 356.26 267.001C290.315 267.001 236.666 248.387 236.666 225.506V219.261C248.998 240.861 297.063 256.554 356.26 256.554ZM356.26 286.84C386.491 286.84 415.51 282.865 437.972 275.642C438.808 275.379 439.264 274.481 438.998 273.649C438.731 272.823 437.84 272.354 437.006 272.629C414.848 279.752 386.172 283.674 356.26 283.674C290.315 283.674 236.667 265.061 236.667 242.179V235.656C248.999 255.646 297.064 270.167 356.26 270.167C415.457 270.167 463.521 255.646 475.854 235.656V242.179C475.854 250.75 468.09 259.051 453.4 266.18C452.613 266.561 452.284 267.511 452.668 268.296C452.94 268.859 453.505 269.187 454.092 269.187C454.326 269.187 454.56 269.14 454.783 269.029C465.021 264.063 472.091 258.426 475.853 252.403V258.834C475.853 281.715 422.204 300.329 356.26 300.329C290.315 300.329 236.666 281.715 236.666 258.834V252.328C248.998 272.318 297.063 286.84 356.26 286.84ZM356.26 303.495C415.456 303.495 463.521 288.974 475.853 268.984V275.49C475.853 298.383 422.204 317.008 356.26 317.008C290.315 317.008 236.666 298.383 236.666 275.49V268.984C248.998 288.974 297.063 303.495 356.26 303.495ZM356.26 320.173C415.456 320.173 463.521 305.643 475.853 285.644V292.169C475.853 315.05 422.204 333.663 356.26 333.663C290.315 333.663 236.666 315.05 236.666 292.169V285.644C248.998 305.643 297.063 320.173 356.26 320.173ZM270.038 340.78C270.214 340.839 270.393 340.867 270.569 340.867C271.219 340.867 271.831 340.463 272.06 339.812C272.352 338.991 271.922 338.083 271.098 337.79C249.216 330.016 236.665 319.452 236.665 308.817V302.318C248.998 322.307 297.062 336.828 356.259 336.828C415.455 336.828 463.52 322.307 475.852 302.318V308.841C475.852 331.722 422.204 350.341 356.259 350.341C329.634 350.341 304.35 347.299 283.145 341.553C282.305 341.354 281.432 341.829 281.203 342.667C280.974 343.511 281.473 344.384 282.319 344.613C303.791 350.434 329.358 353.506 356.259 353.506C415.455 353.506 463.52 338.984 475.852 318.991V325.472C475.852 348.353 422.204 366.966 356.259 366.966C330.894 366.966 306.656 364.199 286.16 358.975C255.166 351.084 236.665 338.556 236.665 325.471V318.921C241.792 327.217 253.137 334.771 270.038 340.78ZM475.853 358.825C475.853 381.706 422.204 400.319 356.26 400.319C290.315 400.319 236.666 381.706 236.666 358.825V352.302C248.998 372.291 297.063 386.812 356.26 386.812C370.571 386.812 384.558 385.945 397.829 384.221C402.9 383.576 408.024 382.767 413.5 381.747C414.362 381.583 414.927 380.757 414.765 379.895C414.604 379.033 413.743 378.476 412.92 378.629C407.506 379.643 402.44 380.44 397.428 381.079C384.285 382.779 370.433 383.647 356.26 383.647C290.315 383.647 236.666 365.033 236.666 342.152V335.749C243.307 346.374 260.24 355.648 285.379 362.049C306.127 367.337 330.637 370.134 356.26 370.134C415.491 370.134 463.579 355.596 475.877 335.589V342.129C475.877 351.62 466.063 360.971 448.241 368.469C447.432 368.809 447.054 369.735 447.394 370.544C447.649 371.148 448.235 371.511 448.854 371.511C449.059 371.511 449.266 371.476 449.466 371.388C462.653 365.843 471.489 359.363 475.854 352.325L475.853 358.825Z" fill="#D4D5F1"/>
<path opacity="0.9" d="M438.585 372.068C434.1 373.575 429.073 375.006 423.647 376.313C422.797 376.518 422.273 377.374 422.478 378.224C422.654 378.951 423.301 379.437 424.019 379.437C424.139 379.437 424.265 379.425 424.391 379.396C429.904 378.066 435.023 376.612 439.593 375.07C440.422 374.794 440.871 373.892 440.589 373.065C440.311 372.238 439.426 371.787 438.585 372.068Z" fill="#D4D5F1"/>
<path opacity="0.9" d="M266.194 232.447C266.98 232.84 267.929 232.529 268.324 231.75C268.72 230.97 268.409 230.02 267.63 229.621C255.085 223.243 248.455 215.868 248.455 208.294C248.455 187.799 297.826 170.487 356.266 170.487C414.705 170.487 464.073 187.799 464.073 208.294C464.073 228.789 414.705 246.107 356.266 246.107C330.261 246.107 305.119 242.753 285.469 236.668C284.626 236.41 283.741 236.873 283.489 237.711C283.228 238.549 283.697 239.435 284.531 239.693C304.477 245.872 329.951 249.272 356.266 249.272C418.496 249.272 467.243 231.275 467.243 208.293C467.243 185.312 418.496 167.32 356.266 167.32C294.036 167.32 245.285 185.318 245.285 208.293C245.285 217.14 252.515 225.494 266.194 232.447Z" fill="#D4D5F1"/>
<g opacity="0.9">
<path opacity="0.9" d="M262.79 230.331H262.761C261.885 230.331 261.176 229.621 261.176 228.748C261.176 227.875 261.885 227.165 262.761 227.165C263.637 227.165 264.361 227.875 264.361 228.748C264.361 229.621 263.666 230.331 262.79 230.331Z" fill="#D4D5F1"/>
</g>
<path d="M476.623 110.571L474.337 123.316L473.671 126.936C473.516 127.779 473.294 128.601 473.005 129.423C472.761 130.112 472.472 130.8 472.139 131.466C471.984 131.821 471.762 132.154 471.585 132.51C466.724 140.747 454.695 146.788 437.916 150.207C432.901 151.251 427.463 152.05 421.67 152.605H421.537C421.293 152.605 421.027 152.649 420.782 152.672H420.672C399.455 154.603 373.554 153.293 346.122 148.253C318.536 143.168 293.789 135.107 274.613 125.692C274.414 125.581 274.214 125.492 274.014 125.403C268.621 122.761 263.694 119.985 259.277 117.121C245.251 108.127 236.351 98.4238 234.598 89.1862C234.487 88.6537 234.42 88.165 234.376 87.6542C234.309 86.899 234.287 86.1666 234.287 85.4336C234.287 84.5679 234.398 83.7461 234.554 82.8798L235.22 79.2605L238.638 65.2713C237.417 77.2398 239.503 80.6593 242.366 84.634C245.229 88.6093 258.901 103.154 278.919 112.591C298.916 122.028 321.488 130 347.299 134.73C373.11 139.46 385.517 141.725 418.075 139.37C450.611 137.016 475.403 125.581 476.623 110.571Z" fill="#1B1E4A"/>
<path opacity="0.9" d="M477.488 0C476.612 0 475.902 0.709578 475.902 1.58304V79.8116C475.902 80.6851 476.612 81.3946 477.488 81.3946C478.364 81.3946 479.073 80.6851 479.073 79.8116V1.58304C479.073 0.709578 478.364 0 477.488 0Z" fill="#D4D5F1"/>
<rect x="302.984" y="45.0714" width="130.227" height="46.257" rx="23.1285" transform="rotate(19.7487 302.984 45.0714)" fill="url(#paint2_linear_1326_923)"/>
<path d="M356.444 91.8697C362.688 90.7569 380.782 86.2675 391.051 92.5963C400.92 98.65 380.167 101.507 373.874 102.61L356.444 91.8697ZM299.011 53.3247C336.899 46.5286 394.011 57.2266 426.535 77.2357C459.108 97.254 454.75 118.998 416.861 125.794C378.972 132.59 321.861 121.892 289.343 101.851C256.764 81.8647 261.122 60.1207 299.011 53.3247ZM314.089 73.3257C312.105 73.715 310.175 74.0814 308.3 74.4249L308.257 74.3836L295.502 76.6917L303.969 81.9153C303.969 81.9153 310.698 80.6283 310.68 80.7246C314.424 80.0698 317.519 80.9873 319.455 81.9183L355.178 103.895C356.01 104.551 356.956 105.66 354.353 106.132C354.547 106.169 347.636 107.355 347.636 107.355L355.271 113.518L367.292 111.37C369.531 110.963 371.764 110.587 373.949 110.202L387.149 118.315L396.36 116.667L383.294 108.646C385.891 108.206 388.33 107.803 390.727 107.359L403.703 115.329L412.963 113.69L399.811 105.586C414.556 102.325 422.104 98.3011 410.882 90.363C401.881 83.9748 391.862 82.1802 381.212 82.6595C384.228 80.2715 383.462 77.1355 375.791 73.0262C365.334 67.4263 352.755 67.2083 339.939 68.7737L326.92 60.7618L317.661 62.4013L330.363 70.2206C327.918 70.6556 325.515 71.1319 323.063 71.5991L310.288 63.6331L301.077 65.2817L314.089 73.3257ZM362.139 78.2224C352.768 72.4623 337.816 76.2829 332.61 77.2263L348.469 86.9717C353.675 86.0283 371.103 83.7395 362.139 78.2224ZM279.862 41.5613C330.039 32.535 405.647 46.7302 448.756 73.2607C491.871 99.7591 486.125 128.586 435.955 137.58C385.784 146.575 310.17 132.411 267.061 105.881C223.952 79.3504 229.686 50.5877 279.862 41.5613ZM262.824 71.876C260.872 82.2093 269.206 93.7229 286.327 104.239C302.684 114.278 325.332 122.415 350.141 127.106C374.949 131.796 399.544 132.557 418.749 129.109C438.84 125.496 451.012 117.759 452.981 107.33C454.951 96.9002 446.599 85.4828 429.478 74.9669C413.121 64.928 390.473 56.7904 365.664 52.1C340.856 47.4096 316.261 46.6483 297.056 50.0967C276.971 53.6779 264.799 61.4143 262.824 71.876Z" fill="#070710"/>
<path opacity="0.9" d="M285.291 49.5088C307.021 45.71 335.047 46.566 364.209 51.9533C392.773 57.212 418.869 66.152 437.686 77.121C455.774 87.6619 465.143 99.158 463.388 108.661C462.422 113.973 458.159 118.551 450.721 122.274C449.938 122.666 449.622 123.616 450.014 124.402C450.29 124.959 450.85 125.275 451.429 125.275C451.669 125.275 451.91 125.223 452.138 125.112C460.514 120.914 465.349 115.573 466.505 109.236C468.544 98.1795 458.876 85.798 439.28 74.3781C420.154 63.2338 393.699 54.1642 364.783 48.8352C335.257 43.3891 306.833 42.5157 284.746 46.3907C283.884 46.5372 283.308 47.3638 283.457 48.2259C283.607 49.0879 284.45 49.6727 285.291 49.5088Z" fill="#D4D5F1"/>
<path opacity="0.9" d="M235.094 49.9248V1.85258C235.094 0.979117 234.385 0.269539 233.509 0.269539C232.633 0.269539 231.924 0.979117 231.924 1.85258V49.9248C231.924 50.7983 232.633 51.5078 233.509 51.5078C234.385 51.5078 235.094 50.7983 235.094 49.9248Z" fill="#D4D5F1"/>
<path opacity="0.9" d="M470.538 67.9872C471.414 67.9872 472.124 67.2776 472.124 66.4041V26.6565C472.124 25.783 471.414 25.0735 470.538 25.0735C469.662 25.0735 468.953 25.783 468.953 26.6565V66.4041C468.953 67.2776 469.662 67.9872 470.538 67.9872Z" fill="#D4D5F1"/>
<path opacity="0.9" d="M275.441 103.883C294.567 115.027 321.025 124.097 349.938 129.426C367.428 132.656 384.491 134.268 400.01 134.268C414.796 134.268 428.179 132.803 439.186 129.859C440.032 129.637 440.533 128.763 440.308 127.919C440.088 127.075 439.212 126.588 438.371 126.8C416.24 132.703 384.212 132.521 350.512 126.307C321.947 121.049 295.852 112.109 277.037 101.14C258.947 90.5987 249.58 79.1026 251.335 69.5996C252.407 63.7429 257.681 58.6192 266.581 54.7736C267.384 54.4278 267.756 53.4955 267.407 52.6923C267.059 51.889 266.127 51.5138 265.327 51.8656C255.41 56.1453 249.492 62.0782 248.217 69.0251C246.176 80.0817 255.845 92.4573 275.441 103.883Z" fill="#D4D5F1"/>
<path opacity="0.9" d="M366.073 41.6591C300.557 29.5801 244.89 39.729 237.323 64.5954C237.269 64.7022 237.148 64.7527 237.119 64.8739L236.859 65.9377C236.836 66.0379 236.78 66.128 236.759 66.2283C236.695 66.451 236.63 66.7205 236.612 66.867C236.606 66.9024 236.612 66.939 236.606 66.9738L233.68 78.9496L233.015 82.5725C232.843 83.5342 232.723 84.4485 232.723 85.4102C232.723 86.19 232.746 86.9698 232.816 87.767C232.866 88.3415 232.942 88.8866 233.062 89.4551C234.855 98.9173 243.633 108.936 258.436 118.428C262.907 121.33 267.923 124.149 273.261 126.764L273.938 127.116C294.047 137 318.909 144.85 345.833 149.81C364.984 153.327 383.685 155.115 400.861 155.115C407.731 155.115 414.356 154.834 420.669 154.253C420.728 154.253 421.109 154.23 421.167 154.224L421.821 154.183C427.701 153.62 433.223 152.805 438.23 151.762C455.955 148.145 467.958 141.767 473 133.219L473.202 132.844C473.343 132.598 473.478 132.357 473.557 132.17C473.917 131.443 474.234 130.698 474.497 129.948C474.813 129.051 475.057 128.148 475.227 127.222L478.087 111.361C478.088 111.355 478.09 111.351 478.092 111.346C478.092 111.345 478.097 111.308 478.098 111.3L478.179 110.848C478.183 110.825 478.162 110.808 478.165 110.785C482.263 84.3512 433.041 53.9896 366.073 41.6591ZM313.391 39.7891C329.443 39.7891 347.159 41.3955 365.499 44.7783C429.701 56.6028 478.837 86.0033 474.997 110.631C474.997 110.643 474.982 110.719 474.973 110.772C472.846 122.344 458.772 131.138 435.352 135.535C411.422 140.025 380.824 139.293 349.184 133.46C317.546 127.638 288.691 117.426 267.937 104.704C247.684 92.2922 237.678 79.1069 239.724 67.5556L239.969 66.5542C244.043 49.6259 273.625 39.7891 313.391 39.7891ZM472.108 126.647C471.967 127.41 471.771 128.148 471.507 128.892C471.285 129.526 471.021 130.153 470.687 130.827C470.62 130.98 470.532 131.126 470.447 131.279L470.215 131.707C465.698 139.363 454.418 145.226 437.59 148.655C432.692 149.675 427.283 150.472 421.535 151.023C421.301 151.023 421.049 151.047 420.524 151.093C398.566 153.086 372.934 151.562 346.406 146.691C319.763 141.784 295.186 134.028 275.331 124.266L274.634 125.691L274.73 123.955C269.427 121.358 264.526 118.603 260.152 115.76C246.092 106.749 237.801 97.4454 236.166 88.8392C236.069 88.3704 236.011 87.9423 235.973 87.4909C235.909 86.7813 235.891 86.0958 235.891 85.4096C235.891 84.6358 235.993 83.9028 236.131 83.141L236.775 79.6117L237.368 77.1864C240.468 87.2063 250.342 97.6381 266.28 107.406C287.36 120.326 316.598 130.686 348.608 136.578C366.764 139.919 384.596 141.608 401.068 141.608C413.636 141.608 425.417 140.623 435.934 138.653C453.76 135.303 466.404 129.319 473.049 121.429L472.108 126.647Z" fill="#D4D5F1"/>
<defs>
<filter id="filter0_f_1326_923" x="0" y="273.243" width="711" height="184" filterUnits="userSpaceOnUse" color-interpolation-filters="sRGB">
<feFlood flood-opacity="0" result="BackgroundImageFix"/>
<feBlend mode="normal" in="SourceGraphic" in2="BackgroundImageFix" result="shape"/>
<feGaussianBlur stdDeviation="23" result="effect1_foregroundBlur_1326_923"/>
</filter>
<linearGradient id="paint0_linear_1326_923" x1="429.747" y1="404.714" x2="429.807" y2="348.474" gradientUnits="userSpaceOnUse">
<stop stop-color="#FF98AA"/>
<stop offset="0.476021" stop-color="#2E20FF" stop-opacity="0.27"/>
<stop offset="0.982266" stop-color="#010314"/>
</linearGradient>
<linearGradient id="paint1_linear_1326_923" x1="418.02" y1="204.266" x2="297.99" y2="194.908" gradientUnits="userSpaceOnUse">
<stop offset="0.1066" stop-color="#DD00AC"/>
<stop offset="0.5303" stop-color="#7130C3"/>
<stop offset="0.9634" stop-color="#621BBB"/>
</linearGradient>
<linearGradient id="paint2_linear_1326_923" x1="425.282" y1="74.9325" x2="305.252" y2="65.5746" gradientUnits="userSpaceOnUse">
<stop offset="0.1066" stop-color="#DD00AC"/>
<stop offset="0.5303" stop-color="#7130C3"/>
<stop offset="0.9634" stop-color="#621BBB"/>
</linearGradient>
</defs>
</svg>
