<svg viewBox="0 0 440 10" xmlns="http://www.w3.org/2000/svg">
<path d="M0 4.00005H175.22V5.00005H0V4.00005Z" fill="#2F336D"/>
<path d="M221.076 9.00006V0.600054H223.919C224.583 0.600054 225.127 0.712054 225.551 0.936054C225.975 1.16005 226.288 1.46005 226.488 1.83605C226.696 2.20405 226.799 2.62405 226.799 3.09605C226.799 3.54405 226.696 3.96005 226.488 4.34405C226.288 4.72005 225.972 5.02405 225.54 5.25605C225.108 5.48005 224.555 5.59205 223.883 5.59205H222.275V9.00006H221.076ZM225.492 9.00006L223.68 5.26805H224.999L226.883 9.00006H225.492ZM222.275 4.68005H223.848C224.44 4.68005 224.871 4.53605 225.143 4.24805C225.423 3.95205 225.564 3.57605 225.564 3.12005C225.564 2.65605 225.428 2.28805 225.156 2.01605C224.884 1.74405 224.443 1.60805 223.835 1.60805H222.275V4.68005Z" fill="#D4D5F1"/>
<path d="M215.596 9.14405C214.804 9.14405 214.104 8.96406 213.496 8.60406C212.896 8.23606 212.424 7.72805 212.08 7.08005C211.744 6.42405 211.576 5.66405 211.576 4.80005C211.576 3.94405 211.744 3.19205 212.08 2.54405C212.424 1.88805 212.896 1.37605 213.496 1.00805C214.104 0.640055 214.804 0.456055 215.596 0.456055C216.404 0.456055 217.108 0.640055 217.708 1.00805C218.316 1.37605 218.788 1.88805 219.124 2.54405C219.46 3.19205 219.628 3.94405 219.628 4.80005C219.628 5.66405 219.46 6.42405 219.124 7.08005C218.788 7.72805 218.316 8.23606 217.708 8.60406C217.108 8.96406 216.404 9.14405 215.596 9.14405ZM215.596 8.07606C216.164 8.07606 216.656 7.94405 217.072 7.68005C217.496 7.41605 217.824 7.04005 218.056 6.55205C218.288 6.06405 218.404 5.48005 218.404 4.80005C218.404 4.12005 218.288 3.53605 218.056 3.04805C217.824 2.56005 217.496 2.18805 217.072 1.93205C216.656 1.66805 216.164 1.53605 215.596 1.53605C215.036 1.53605 214.544 1.66805 214.12 1.93205C213.704 2.18805 213.38 2.56005 213.148 3.04805C212.916 3.53605 212.8 4.12005 212.8 4.80005C212.8 5.48005 212.916 6.06405 213.148 6.55205C213.38 7.04005 213.704 7.41605 214.12 7.68005C214.544 7.94405 215.036 8.07606 215.596 8.07606Z" fill="#D4D5F1"/>
<path d="M264.77 4.00005H439.99V5.00005H264.77V4.00005Z" fill="#2F336D"/>
</svg>
