<svg viewBox="0 0 851 177" xmlns="http://www.w3.org/2000/svg">
<path d="M850.278 166C850.278 172.075 845.356 177 839.284 177H11.715C5.64301 177 0.720703 172.075 0.720703 166L0.720715 11C0.720715 4.92487 5.64302 -5.31105e-07 11.715 0L161.834 6.04942e-06C164.895 6.31713e-06 167.817 1.27651 169.897 3.52242L194.355 29.9235C196.436 32.1694 199.358 33.4459 202.419 33.4459L651.361 33.446C654.548 33.446 657.579 32.0618 659.668 29.6521L682.076 3.79389C684.165 1.38425 687.195 3.80142e-05 690.383 3.8293e-05L839.284 4.42359e-05C845.356 4.4767e-05 850.278 4.92491 850.278 11V166Z" fill="#0F1021"/>
<path d="M850.278 166C850.278 172.075 845.356 177 839.284 177H11.715C5.64301 177 0.720703 172.075 0.720703 166L0.720715 11C0.720715 4.92487 5.64302 -5.31105e-07 11.715 0L161.834 6.04942e-06C164.895 6.31713e-06 167.817 1.27651 169.897 3.52242L194.355 29.9235C196.436 32.1694 199.358 33.4459 202.419 33.4459L651.361 33.446C654.548 33.446 657.579 32.0618 659.668 29.6521L682.076 3.79389C684.165 1.38425 687.195 3.80142e-05 690.383 3.8293e-05L839.284 4.42359e-05C845.356 4.4767e-05 850.278 4.92491 850.278 11V166Z" fill="#0F1021"/>
<path d="M839.284 176C844.803 176 849.278 171.523 849.278 166V11C849.278 5.47671 844.803 1.00004 839.284 1.00004L690.383 1.00004C687.485 1.00004 684.731 2.25816 682.831 4.44878C682.831 4.44883 682.831 4.44874 682.831 4.44878L660.423 30.3071C658.144 32.9358 654.838 34.446 651.361 34.446L202.419 34.4459C199.08 34.4459 195.891 33.0532 193.621 30.6032L194.355 29.9235C196.436 32.1694 199.358 33.4459 202.419 33.4459L651.361 33.446C654.548 33.446 657.579 32.0618 659.668 29.6521L682.076 3.79389C684.165 1.38425 687.195 3.80142e-05 690.383 3.8293e-05L839.284 4.42359e-05C845.356 4.4767e-05 850.278 4.92491 850.278 11V166C850.278 172.075 845.356 177 839.284 177H11.715C5.64301 177 0.720703 172.075 0.720703 166L0.720715 11C0.720715 4.92487 5.64302 0 11.715 0L161.834 6.04942e-06C164.895 6.31713e-06 167.817 1.27651 169.897 3.52242L194.355 29.9235L193.621 30.6032L169.164 4.202C167.272 2.16033 164.616 1.00001 161.834 1.00001L11.715 1C6.1958 1 1.72072 5.47666 1.72071 11L1.7207 166C1.7207 171.523 6.19579 176 11.715 176H839.284Z" fill="#2F336D" opacity="0.6"/>
</svg>