<svg width="626" height="257" viewBox="0 0 626 257" fill="none" xmlns="http://www.w3.org/2000/svg">
<path opacity="0.2" d="M564 36.1847C442.051 99.6609 239.514 174.485 0.5 193V223.5H564V36.1847Z" fill="url(#paint0_linear_1325_368)"/>
<path d="M624.8 3.26866C625.501 2.82665 625.711 1.90034 625.269 1.19968C624.827 0.49902 623.9 0.28934 623.2 0.731344L624.8 3.26866ZM0.61585 194.496C284.878 172.475 517.61 70.8885 624.8 3.26866L623.2 0.731344C516.39 68.1115 284.122 169.525 0.38415 191.504L0.61585 194.496Z" fill="url(#paint1_linear_1325_368)"/>
<rect x="1" y="221" width="624" height="5" rx="2.5" fill="url(#paint2_linear_1325_368)"/>
<g filter="url(#filter0_f_1325_368)">
<circle cx="564" cy="223" r="14" fill="#7130C3"/>
</g>
<circle cx="564" cy="223" r="10" fill="#7130C3"/>
<circle cx="564" cy="223" r="5" fill="#070710"/>
<defs>
<filter id="filter0_f_1325_368" x="530" y="189" width="68" height="68" filterUnits="userSpaceOnUse" color-interpolation-filters="sRGB">
<feFlood flood-opacity="0" result="BackgroundImageFix"/>
<feBlend mode="normal" in="SourceGraphic" in2="BackgroundImageFix" result="shape"/>
<feGaussianBlur stdDeviation="10" result="effect1_foregroundBlur_1325_368"/>
</filter>
<linearGradient id="paint0_linear_1325_368" x1="312.25" y1="58" x2="312.25" y2="223.5" gradientUnits="userSpaceOnUse">
<stop stop-color="#FC6500"/>
<stop offset="1" stop-color="#7130C3"/>
</linearGradient>
<linearGradient id="paint1_linear_1325_368" x1="624" y1="97.5" x2="0.5" y2="97.5" gradientUnits="userSpaceOnUse">
<stop stop-color="#FC6500"/>
<stop offset="1" stop-color="#FF00EE"/>
</linearGradient>
<linearGradient id="paint2_linear_1325_368" x1="-3.02613" y1="222.807" x2="110.394" y2="472.508" gradientUnits="userSpaceOnUse">
<stop offset="0.1066" stop-color="#DD00AC"/>
<stop offset="0.5303" stop-color="#7130C3"/>
<stop offset="0.9634" stop-color="#410093"/>
<stop offset="1" stop-color="#FF00EE" stop-opacity="0.26"/>
<stop offset="1" stop-color="#FF3BD4" stop-opacity="0"/>
</linearGradient>
</defs>
</svg>
