<svg width="159" height="39" viewBox="0 0 159 39" fill="none" xmlns="http://www.w3.org/2000/svg">
<path d="M60.192 31.272C57.9707 31.272 55.9533 30.8073 54.14 29.878C52.3267 28.9487 50.8873 27.566 49.822 25.73C48.7567 23.894 48.224 21.684 48.224 19.1C48.224 16.516 48.7567 14.306 49.822 12.47C50.91 10.634 52.3607 9.25133 54.174 8.322C56.01 7.39267 58.016 6.928 60.192 6.928C62.164 6.928 63.9433 7.27933 65.53 7.982C67.1167 8.68467 68.4087 9.682 69.406 10.974C70.4033 12.266 71.004 13.762 71.208 15.462H65.836C65.6773 14.2153 65.0653 13.218 64 12.47C62.9573 11.6993 61.6767 11.314 60.158 11.314C58.866 11.314 57.71 11.62 56.69 12.232C55.67 12.8213 54.8653 13.7053 54.276 14.884C53.6867 16.04 53.392 17.4453 53.392 19.1C53.392 20.7547 53.6867 22.1713 54.276 23.35C54.8653 24.506 55.67 25.3787 56.69 25.968C57.71 26.5573 58.866 26.852 60.158 26.852C61.6767 26.852 62.9687 26.478 64.034 25.73C65.122 24.9593 65.768 23.962 65.972 22.738H71.106C70.9473 24.4153 70.3807 25.9 69.406 27.192C68.454 28.484 67.1733 29.4927 65.564 30.218C63.9773 30.9207 62.1867 31.272 60.192 31.272ZM80.9455 31.272C79.2229 31.272 77.6702 30.898 76.2875 30.15C74.9049 29.3793 73.8282 28.3253 73.0575 26.988C72.2869 25.628 71.9015 24.1093 71.9015 22.432C71.9015 20.7547 72.2869 19.2473 73.0575 17.91C73.8282 16.55 74.9049 15.496 76.2875 14.748C77.6702 13.9773 79.2229 13.592 80.9455 13.592C82.6682 13.592 84.2209 13.9773 85.6035 14.748C86.9862 15.496 88.0629 16.55 88.8335 17.91C89.6042 19.2473 89.9895 20.7547 89.9895 22.432C89.9895 24.1093 89.6042 25.628 88.8335 26.988C88.0629 28.3253 86.9862 29.3793 85.6035 30.15C84.2209 30.898 82.6682 31.272 80.9455 31.272ZM80.9455 27.192C82.2149 27.192 83.2462 26.75 84.0395 25.866C84.8329 24.982 85.2295 23.8373 85.2295 22.432C85.2295 21.004 84.8329 19.848 84.0395 18.964C83.2462 18.08 82.2149 17.638 80.9455 17.638C79.6762 17.638 78.6449 18.08 77.8515 18.964C77.0582 19.848 76.6615 21.004 76.6615 22.432C76.6615 23.8373 77.0582 24.982 77.8515 25.866C78.6449 26.75 79.6762 27.192 80.9455 27.192ZM91.8882 13.864H96.6142V31H91.8882V13.864ZM96.7842 6.418V11.416H91.7522V6.418H96.7842ZM99.4678 13.864H104.194V16.244C104.67 15.4053 105.361 14.7593 106.268 14.306C107.197 13.83 108.251 13.592 109.43 13.592C110.699 13.592 111.81 13.8753 112.762 14.442C113.737 15.0087 114.485 15.802 115.006 16.822C115.527 17.842 115.788 19.0093 115.788 20.324V31H111.028V21.378C111.028 20.3353 110.722 19.4853 110.11 18.828C109.498 18.148 108.705 17.808 107.73 17.808C106.687 17.808 105.837 18.1707 105.18 18.896C104.523 19.5987 104.194 20.5053 104.194 21.616V31H99.4678V13.864ZM118.436 6.418H123.162V31H118.436V6.418ZM130.538 30.83L124.316 13.864H129.144L132.748 24.914L136.318 13.864H141.18L136.046 27.872L132.51 37.936H127.988L130.538 30.83ZM149.551 31.272C147.692 31.272 146.094 30.8527 144.757 30.014C143.442 29.1527 142.445 28.042 141.765 26.682C141.085 25.322 140.745 23.894 140.745 22.398C140.745 20.8793 141.051 19.4513 141.663 18.114C142.298 16.7767 143.25 15.6887 144.519 14.85C145.811 14.0113 147.375 13.592 149.211 13.592C151.115 13.592 152.702 14 153.971 14.816C155.24 15.632 156.17 16.6747 156.759 17.944C157.371 19.2133 157.677 20.5507 157.677 21.956C157.677 22.4773 157.654 22.9873 157.609 23.486H145.301C145.482 24.71 145.936 25.6733 146.661 26.376C147.409 27.056 148.372 27.396 149.551 27.396C150.503 27.396 151.285 27.2147 151.897 26.852C152.509 26.4667 152.906 25.9113 153.087 25.186H157.711C157.371 27.022 156.453 28.4953 154.957 29.606C153.461 30.7167 151.659 31.272 149.551 31.272ZM152.951 20.494C152.883 19.4967 152.52 18.6807 151.863 18.046C151.206 17.3887 150.322 17.06 149.211 17.06C148.123 17.06 147.262 17.3433 146.627 17.91C145.992 18.454 145.573 19.3153 145.369 20.494H152.951Z" fill="#CCCEEF"/>
<mask id="path-2-inside-1_355_830" fill="white">
<path fill-rule="evenodd" clip-rule="evenodd" d="M30.1736 30.1736C35.4058 27.5656 39 22.1617 39 15.9184C39 7.12691 31.8731 0 23.0816 0C16.8383 0 11.4345 3.59425 8.82642 8.82643C10.9619 7.76198 13.3702 7.16324 15.9184 7.16324C24.7099 7.16324 31.8368 14.2902 31.8368 23.0816C31.8368 25.6298 31.238 28.0381 30.1736 30.1736Z"/>
</mask>
<path fill-rule="evenodd" clip-rule="evenodd" d="M30.1736 30.1736C35.4058 27.5656 39 22.1617 39 15.9184C39 7.12691 31.8731 0 23.0816 0C16.8383 0 11.4345 3.59425 8.82642 8.82643C10.9619 7.76198 13.3702 7.16324 15.9184 7.16324C24.7099 7.16324 31.8368 14.2902 31.8368 23.0816C31.8368 25.6298 31.238 28.0381 30.1736 30.1736Z" fill="#CCCEEF"/>
<path d="M30.1736 30.1736L29.2786 29.7275L27.9457 32.4014L30.6197 31.0686L30.1736 30.1736ZM8.82642 8.82643L7.93144 8.38032L6.59857 11.0543L9.27253 9.72141L8.82642 8.82643ZM38 15.9184C38 21.768 34.6334 26.8332 29.7275 29.2786L30.6197 31.0686C36.1781 28.2979 40 22.5554 40 15.9184H38ZM23.0816 1C31.3208 1 38 7.67919 38 15.9184H40C40 6.57462 32.4254 -1 23.0816 -1V1ZM9.72139 9.27254C12.1668 4.36662 17.232 1 23.0816 1V-1C16.4446 -1 10.7021 2.82188 7.93144 8.38032L9.72139 9.27254ZM9.27253 9.72141C11.2726 8.72447 13.5285 8.16324 15.9184 8.16324V6.16324C13.2119 6.16324 10.6512 6.79948 8.3803 7.93145L9.27253 9.72141ZM15.9184 8.16324C24.1576 8.16324 30.8368 14.8424 30.8368 23.0816H32.8368C32.8368 13.7379 25.2621 6.16324 15.9184 6.16324V8.16324ZM30.8368 23.0816C30.8368 25.4715 30.2755 27.7275 29.2786 29.7275L31.0686 30.6197C32.2005 28.3488 32.8368 25.7881 32.8368 23.0816H30.8368Z" fill="#070710" mask="url(#path-2-inside-1_355_830)"/>
<mask id="path-4-inside-2_355_830" fill="white">
<path fill-rule="evenodd" clip-rule="evenodd" d="M15.9184 38.9999C24.7099 38.9999 31.8368 31.873 31.8368 23.0815C31.8368 14.29 24.7099 7.16309 15.9184 7.16309C7.12691 7.16309 0 14.29 0 23.0815C0 26.4754 1.06216 29.6213 2.8722 32.2048C2.96194 32.0781 3.06547 31.955 3.18362 31.8369L10.3469 25.4695C9.55095 24.6736 7.95912 21.4899 7.56116 19.1022L23.4796 15.5205L19.8979 31.4389C17.5102 31.041 15.1224 29.8471 13.5306 28.6532L7.16322 35.8165C7.0447 35.935 6.92473 36.0406 6.80386 36.1338C9.38572 37.9401 12.5283 38.9999 15.9184 38.9999Z"/>
</mask>
<path fill-rule="evenodd" clip-rule="evenodd" d="M15.9184 38.9999C24.7099 38.9999 31.8368 31.873 31.8368 23.0815C31.8368 14.29 24.7099 7.16309 15.9184 7.16309C7.12691 7.16309 0 14.29 0 23.0815C0 26.4754 1.06216 29.6213 2.8722 32.2048C2.96194 32.0781 3.06547 31.955 3.18362 31.8369L10.3469 25.4695C9.55095 24.6736 7.95912 21.4899 7.56116 19.1022L23.4796 15.5205L19.8979 31.4389C17.5102 31.041 15.1224 29.8471 13.5306 28.6532L7.16322 35.8165C7.0447 35.935 6.92473 36.0406 6.80386 36.1338C9.38572 37.9401 12.5283 38.9999 15.9184 38.9999Z" fill="#CCCEEF"/>
<path d="M2.8722 32.2048L2.05321 32.7786L2.86802 33.9416L3.68843 32.7826L2.8722 32.2048ZM3.18362 31.8369L2.51925 31.0895L2.49729 31.109L2.47651 31.1298L3.18362 31.8369ZM10.3469 25.4695L11.0112 26.2169L11.8039 25.5123L11.054 24.7624L10.3469 25.4695ZM7.56116 19.1022L7.34164 18.1266L6.41935 18.3341L6.57476 19.2666L7.56116 19.1022ZM23.4796 15.5205L24.4552 15.74L24.8022 14.198L23.2601 14.5449L23.4796 15.5205ZM19.8979 31.4389L19.7335 32.4253L20.666 32.5807L20.8735 31.6584L19.8979 31.4389ZM13.5306 28.6532L14.1306 27.8532L13.3944 27.3011L12.7831 27.9888L13.5306 28.6532ZM7.16322 35.8165L7.87032 36.5236L7.8911 36.5028L7.91063 36.4808L7.16322 35.8165ZM6.80386 36.1338L6.19288 35.3422L5.1159 36.1734L6.23061 36.9532L6.80386 36.1338ZM30.8368 23.0815C30.8368 31.3207 24.1576 37.9999 15.9184 37.9999V39.9999C25.2622 39.9999 32.8368 32.4252 32.8368 23.0815H30.8368ZM15.9184 8.16309C24.1576 8.16309 30.8368 14.8423 30.8368 23.0815H32.8368C32.8368 13.7377 25.2622 6.16309 15.9184 6.16309V8.16309ZM1 23.0815C1 14.8423 7.67919 8.16309 15.9184 8.16309V6.16309C6.57462 6.16309 -1 13.7377 -1 23.0815H1ZM3.6912 31.631C1.99513 29.2102 1 26.2635 1 23.0815H-1C-1 26.6873 0.129187 30.0324 2.05321 32.7786L3.6912 31.631ZM2.47651 31.1298C2.31936 31.2869 2.17914 31.4531 2.05598 31.6271L3.68843 32.7826C3.74474 32.703 3.81159 32.6231 3.89072 32.544L2.47651 31.1298ZM9.68251 24.7221L2.51925 31.0895L3.84798 32.5843L11.0112 26.2169L9.68251 24.7221ZM6.57476 19.2666C6.79366 20.58 7.3285 22.0619 7.89572 23.2994C8.18193 23.9239 8.48449 24.5039 8.77325 24.9874C9.05141 25.4531 9.35098 25.8878 9.63977 26.1766L11.054 24.7624C10.9448 24.6533 10.7469 24.3915 10.4903 23.9619C10.2443 23.55 9.97483 23.0355 9.71385 22.4661C9.18667 21.3159 8.72661 20.0121 8.54755 18.9378L6.57476 19.2666ZM23.2601 14.5449L7.34164 18.1266L7.78067 20.0778L23.6991 16.4961L23.2601 14.5449ZM20.8735 31.6584L24.4552 15.74L22.504 15.301L18.9223 31.2194L20.8735 31.6584ZM12.9306 29.4532C14.625 30.724 17.1589 31.9962 19.7335 32.4253L20.0623 30.4525C17.8614 30.0857 15.6198 28.9702 14.1306 27.8532L12.9306 29.4532ZM7.91063 36.4808L14.278 29.3176L12.7831 27.9888L6.41581 35.1521L7.91063 36.4808ZM7.41483 36.9255C7.57121 36.8048 7.72314 36.6708 7.87032 36.5236L6.45611 35.1094C6.36626 35.1992 6.27826 35.2763 6.19288 35.3422L7.41483 36.9255ZM15.9184 37.9999C12.7399 37.9999 9.79638 37.007 7.3771 35.3145L6.23061 36.9532C8.97505 38.8733 12.3166 39.9999 15.9184 39.9999V37.9999Z" fill="#070710" mask="url(#path-4-inside-2_355_830)"/>
<path opacity="0.4" fill-rule="evenodd" clip-rule="evenodd" d="M8.82639 8.82627C10.9619 7.76182 13.3702 7.16309 15.9184 7.16309C24.7098 7.16309 31.8367 14.29 31.8367 23.0815C31.8367 25.6296 31.238 28.038 30.1736 30.1734C28.0381 31.2379 25.6298 31.8366 23.0816 31.8366C14.2901 31.8366 7.16321 24.7097 7.16321 15.9182C7.16321 13.3701 7.76194 10.9617 8.82639 8.82627Z" fill="#7130C3"/>
</svg>
