<svg width="147" height="33" viewBox="0 0 147 33" fill="none" xmlns="http://www.w3.org/2000/svg">
<path d="M0 19.5376L12.8713 6.36275L25.8603 19.6514V13.3186L12.9889 0L0.0117141 13.3606L0 19.5376Z" fill="white"/>
<path d="M2.98111 22.8028L12.8184 33L22.7673 22.8028L19.7333 19.6514L12.8712 26.6972L9.16097 22.8028L15.9642 15.6972L12.9183 12.6176L2.98111 22.8028Z" fill="white"/>
<path fill-rule="evenodd" clip-rule="evenodd" d="M59.3586 26.1759C58.0827 26.1759 56.9655 26.0561 56.007 25.8165C55.0486 25.5588 54.2548 25.0975 53.6139 24.4265C52.9788 23.7435 52.4908 22.7669 52.1556 21.4967C51.8381 20.2266 51.6793 18.573 51.6793 16.5359C51.6793 14.4989 51.8381 12.8453 52.1556 11.5752C52.4908 10.293 52.9788 9.30447 53.6139 8.62146C54.2665 7.93845 55.0662 7.46514 56.007 7.20752C56.9655 6.94989 58.0827 6.82408 59.3586 6.82408C60.6346 6.82408 61.7518 6.94989 62.7102 7.20752C63.6687 7.46514 64.4625 7.93845 65.1034 8.62146C65.7384 9.30447 66.2206 10.293 66.5381 11.5752C66.8556 12.8453 67.0144 14.4989 67.0144 16.5359C67.0144 18.573 66.8556 20.2266 66.5381 21.4967C66.2206 22.7669 65.7384 23.7435 65.1034 24.4265C64.4625 25.0915 63.6569 25.5588 62.6867 25.8165C61.7283 26.0561 60.6169 26.1759 59.3586 26.1759ZM59.3586 22.7609C60.0995 22.7609 60.7169 22.683 61.2226 22.5272C61.7459 22.3535 62.1457 22.0479 62.4339 21.6046C62.7337 21.1612 62.9572 20.5321 63.0865 19.7293C63.2218 18.9085 63.2865 17.8421 63.2865 16.5419C63.2865 15.1879 63.2218 14.0975 63.0865 13.2767C62.9513 12.4379 62.7337 11.8028 62.4339 11.3775C62.134 10.9341 61.7283 10.6345 61.2226 10.4788C60.7169 10.323 60.0995 10.2451 59.3586 10.2451C58.6177 10.2451 58.0003 10.323 57.4947 10.4788C57.0066 10.6345 56.6068 10.9341 56.2834 11.3775C55.9835 11.8028 55.7542 12.4379 55.6013 13.2767C55.4661 14.0975 55.4014 15.1879 55.4014 16.5419C55.4014 17.8421 55.4602 18.9085 55.5778 19.7293C55.713 20.5321 55.9306 21.1612 56.2305 21.6046C56.5303 22.0479 56.9361 22.3595 57.4417 22.5272C57.9474 22.683 58.5825 22.7609 59.3586 22.7609Z" fill="white"/>
<path d="M43.9119 26.1759C42.8358 26.1759 41.8774 26.0501 41.0365 25.7925C40.1957 25.5349 39.4901 25.0615 38.9197 24.3785C38.3494 23.6955 37.9143 22.719 37.6085 21.4488C37.3086 20.1667 37.1557 18.5011 37.1557 16.4641C37.1557 14.4929 37.3086 12.8813 37.6085 11.6351C37.926 10.3829 38.3788 9.40632 38.9668 8.70534C39.5548 8.00436 40.2663 7.51307 41.1071 7.24347C41.9479 6.96786 42.8946 6.83007 43.953 6.83007C45.1937 6.83007 46.3227 6.93192 47.3281 7.13562C48.3513 7.32135 49.1686 7.51906 49.7742 7.72876V10.6825C49.3215 10.5806 48.6335 10.4847 47.7103 10.4009C46.8048 10.299 45.8111 10.2451 44.7351 10.2451C44.0295 10.2451 43.4238 10.329 42.924 10.5027C42.436 10.6585 42.042 10.9581 41.7421 11.4014C41.454 11.8328 41.2365 12.4559 41.0895 13.2767C40.9542 14.0975 40.8895 15.1699 40.8895 16.488C40.8895 18.2015 41.0013 19.5136 41.2188 20.4183C41.4364 21.311 41.8245 21.9281 42.3772 22.2696C42.9299 22.5931 43.7237 22.7549 44.7468 22.7549C46.0051 22.7549 47.04 22.7309 47.8456 22.677C48.6511 22.6231 49.2979 22.5632 49.786 22.4973V25.427C49.098 25.6667 48.2631 25.8584 47.2929 25.9902C46.3285 26.116 45.2055 26.1759 43.9119 26.1759Z" fill="white"/>
<path d="M69.8956 26.0202V7.00381H72.8944L80.7031 19.5436V7.00381H84.4309V26.0202H81.4321L73.6471 13.4804V26.0202H69.8956Z" fill="white"/>
<path d="M87.5062 26.0202V11.3475C87.5062 10.2151 87.7237 9.33443 88.1589 8.69935C88.594 8.06427 89.1409 7.62691 89.7994 7.38726C90.4521 7.12963 91.1107 7.00381 91.7634 7.00381C92.3689 7.00381 93.1158 7.0098 94.0036 7.02778C94.9092 7.04575 95.8675 7.07571 96.8731 7.12963C97.8961 7.16558 98.8782 7.23148 99.819 7.33333V10.5207H92.7924C92.269 10.5207 91.8751 10.6645 91.6105 10.9581C91.3576 11.2337 91.2342 11.5931 91.2342 12.0365V15.3017L98.6136 15.5054V18.5131L91.2342 18.7168V26.0142L87.5062 26.0202Z" fill="white"/>
<path d="M106.604 26.0202C105.14 26.0202 104.041 25.6787 103.306 24.9897C102.565 24.3066 102.194 23.1443 102.194 21.5207V7.00381H105.922V20.9096C105.922 21.5447 106.075 21.982 106.375 22.2217C106.693 22.4613 107.098 22.5812 107.586 22.5812H113.484V26.0261H106.604V26.0202Z" fill="white"/>
<path d="M122.339 26.152C121.299 26.152 120.334 26.0681 119.44 25.8943C118.564 25.7086 117.794 25.3911 117.124 24.9417C116.471 24.4804 115.96 23.8453 115.589 23.0425C115.236 22.2217 115.06 21.1732 115.06 19.909V7.00381H118.788V19.8791C118.788 20.9276 119.099 21.6585 119.723 22.0899C120.346 22.5153 121.216 22.7309 122.345 22.7309C123.457 22.7309 124.321 22.5153 124.938 22.0899C125.562 21.6585 125.873 20.9276 125.873 19.8791V7.00381H129.625V19.9031C129.625 21.1732 129.442 22.2157 129.072 23.0365C128.701 23.8393 128.19 24.4744 127.537 24.9357C126.885 25.3791 126.108 25.6966 125.221 25.8883C124.321 26.0681 123.362 26.152 122.339 26.152Z" fill="white"/>
<path d="M131.23 26.0202L136.945 16.488L131.153 7.00381H135.287L139.268 13.5044L142.896 7.00381H147L141.202 16.6917L146.924 26.0202H142.79L138.915 19.6754L135.358 26.0202H131.23Z" fill="white"/>
</svg>
