<svg width="145" height="40" viewBox="0 0 145 40" fill="none" xmlns="http://www.w3.org/2000/svg">
<path d="M26.3021 31.817H31.1849L26.4715 13.8727L29.8437 7.90452H24.909L22.8124 0H18.0339L0 31.8302H5.45578L19.6874 6.72416L21.3801 13.1963L10.8332 31.817H16.289L23.125 19.7878L26.3021 31.817Z" fill="#FFFFFF"/>
<path d="M38.1643 31.8302V7.89124H33.3725V31.8302H38.1643Z" fill="#FFFFFF"/>
<path fill-rule="evenodd" clip-rule="evenodd" d="M57.7212 31.8833V15.6897L52.9167 15.756V16.6313C51.6927 15.8223 50.1432 15.3448 48.3854 15.3448C44.0234 15.3448 40.5078 18.5809 40.5078 23.4085C40.5078 27.5597 44.0104 31.1671 48.3854 31.1671C50.1302 31.1671 51.6927 30.6897 52.9167 29.8807V31.9496C52.9167 34.5756 51.1978 35.5836 49.349 35.5836C47.3958 35.5836 45.9114 34.8409 45.7161 33.1167L40.9376 33.0902C41.2631 37.1353 44.6485 40 49.1796 40C53.8801 40 57.7212 36.9098 57.7212 31.8833ZM52.9297 21.2865V25.2255C51.9531 26.6578 50.5989 27.1486 49.2577 27.1618C46.901 27.1618 45.2604 25.1989 45.2604 23.4085C45.2604 20.9682 46.901 19.3634 49.2577 19.3634C50.5989 19.3634 51.9531 19.8409 52.9297 21.2865Z" fill="#FFFFFF"/>
<path fill-rule="evenodd" clip-rule="evenodd" d="M76.8359 23.5677C76.8359 28.5544 73.216 32.1088 68.3594 32.1088C63.4636 32.1088 59.8437 28.5544 59.8437 23.5677C59.8437 18.6207 63.4636 15 68.3594 15C73.216 15 76.8359 18.6207 76.8359 23.5677ZM72.2135 23.5677C72.2135 21.2202 70.7031 19.3236 68.3594 19.3236C65.9894 19.3236 64.4791 21.2202 64.4791 23.5677C64.4791 25.9814 65.9894 27.7851 68.3594 27.7851C70.6902 27.7719 72.2135 25.9814 72.2135 23.5677Z" fill="#FFFFFF"/>
<path fill-rule="evenodd" clip-rule="evenodd" d="M106.589 31.8037V15.7162L101.888 15.7295V16.6446C100.664 15.8355 99.1145 15.3316 97.3567 15.3316C92.9947 15.3316 89.4791 19.1114 89.4791 23.7931C89.4791 28.4483 92.9818 32.2281 97.3567 32.2281C99.1015 32.2281 100.664 31.7242 101.888 30.9151V31.8302L106.589 31.8037ZM101.888 21.3263V26.2599C100.898 27.6923 99.5181 28.0769 98.1379 28.0902C95.7291 28.0902 94.0623 26.1273 94.0623 23.8064C94.0623 21.4589 95.7291 19.496 98.1379 19.496C99.5181 19.496 100.898 19.8939 101.888 21.3263Z" fill="#FFFFFF"/>
<path d="M125.911 23.0902V31.8302H121.289V23.6605C121.289 21.0345 120 19.6419 117.708 19.6419C116.51 19.6419 115.195 20.3449 114.063 21.6976V31.8302H109.336V15.7427H114.063V16.9629C115.351 15.9151 116.849 15.3448 118.633 15.3448C122.852 15.3448 125.911 18.3687 125.911 23.0902Z" fill="#FFFFFF"/>
<path fill-rule="evenodd" clip-rule="evenodd" d="M145 7.89124V31.8302H140.208V30.9151C138.984 31.7241 137.422 32.2281 135.677 32.2281C131.302 32.2281 127.8 28.4483 127.8 23.7665C127.8 19.1114 131.315 15.3316 135.677 15.3316C137.435 15.3316 138.984 15.8355 140.208 16.6446V7.87797L145 7.89124ZM140.208 26.2732V21.2997C139.206 19.8541 137.813 19.4562 136.432 19.4562C134.01 19.4562 132.331 21.4324 132.331 23.7665C132.331 26.1406 134.01 28.1167 136.432 28.1167C137.813 28.1167 139.206 27.7188 140.208 26.2732Z" fill="#FFFFFF"/>
<path d="M88.3464 19.8333C88.4456 19.822 88.5371 19.8116 88.6198 19.801V15.7029C86.4062 15.4774 84.7786 16.0345 83.698 16.9761V15.7692H78.9714V31.8434H83.698V22.0689C85.0167 20.2132 87.1956 19.9645 88.3464 19.8333Z" fill="#FFFFFF"/>
</svg>
