<svg width="131" height="39" viewBox="0 0 131 39" fill="none" xmlns="http://www.w3.org/2000/svg">
<path d="M123.115 29.8869C124.634 29.9176 126.141 29.6165 127.533 29.0044C128.767 28.4492 129.868 27.6309 130.759 26.6056L127.459 23.4646C127.016 24.0792 126.435 24.579 125.764 24.9229C124.998 25.3123 124.149 25.505 123.291 25.4838C122.519 25.4929 121.752 25.3408 121.041 25.037C120.372 24.7497 119.771 24.3243 119.276 23.788C118.767 23.2328 118.372 22.5815 118.114 21.8716C117.829 21.0811 117.688 20.2449 117.698 19.4036C117.688 18.5745 117.829 17.7507 118.114 16.973C118.376 16.2619 118.772 15.609 119.281 15.051C119.786 14.5068 120.395 14.0728 121.072 13.7759C121.796 13.4611 122.577 13.3032 123.365 13.3122C124.128 13.3138 124.883 13.4662 125.588 13.7609C126.288 14.0441 126.894 14.5203 127.338 15.1351L130.561 11.8819C129.672 10.8912 128.549 10.1438 127.296 9.70929C125.985 9.21795 124.597 8.96476 123.199 8.96142C121.768 8.95007 120.348 9.19702 119.003 9.69059C117.747 10.153 116.595 10.8636 115.614 11.7809C114.637 12.7073 113.865 13.832 113.348 15.0809C112.787 16.4486 112.509 17.9177 112.53 19.398C112.512 20.8591 112.786 22.3089 113.336 23.6609C113.841 24.9103 114.597 26.0409 115.555 26.982C116.513 27.923 117.654 28.6542 118.905 29.1297C120.249 29.6449 121.678 29.9017 123.115 29.8869Z" fill="#FFFFFF"/>
<path d="M63.4918 29.3559H68.1874L73.7996 9.49802H68.8541L65.6869 22.7073H65.6035L62.075 9.49802H57.1295L53.6287 22.7073H53.5455L50.4336 9.49802H45.3215L50.906 29.3559H55.6292L59.5189 15.9241H59.6022L63.4918 29.3559Z" fill="#FFFFFF"/>
<path fill-rule="evenodd" clip-rule="evenodd" d="M91.8032 26.3121C92.2294 25.5754 92.4423 24.6637 92.4423 23.5767V23.5824C92.4609 22.7321 92.2397 21.894 91.8045 21.1657C91.3694 20.4375 90.7382 19.8491 89.9844 19.469C89.4899 19.2165 88.9603 19.0412 88.4136 18.9493V18.8932C89.3237 18.6122 90.1342 18.0721 90.7476 17.3376C91.3401 16.6184 91.6366 15.7066 91.6366 14.6023C91.6366 13.602 91.4328 12.7625 91.0254 12.1062C90.6305 11.4655 90.087 10.9316 89.4416 10.5506C88.7698 10.1584 88.037 9.88347 87.2746 9.73734C86.5062 9.58096 85.7245 9.50081 84.9407 9.49802H77.1058V29.3559H84.9407C85.8684 29.3568 86.7937 29.2577 87.7006 29.0605C88.5538 28.8844 89.3691 28.5565 90.1085 28.092C90.8089 27.6472 91.3908 27.0361 91.8032 26.3121ZM86.2836 13.7759C86.7924 14.0837 87.0467 14.5742 87.0467 15.2473C87.048 15.959 86.8029 16.4969 86.3114 16.8608C85.82 17.2248 85.1297 17.4068 84.2405 17.4068H81.6845V13.3122H84.0184C85.0197 13.3134 85.7749 13.468 86.2836 13.7759ZM86.7597 21.4173C87.377 21.7376 87.6858 22.3078 87.6858 23.128H87.6914C87.7093 23.5475 87.6029 23.9628 87.3857 24.3209C87.1869 24.6238 86.9147 24.8703 86.5949 25.037C86.2535 25.2091 85.8882 25.3271 85.5112 25.3866C85.1297 25.4502 84.7439 25.4827 84.3574 25.4838H81.6901V20.9405H84.3147C85.3334 20.9405 86.1485 21.1013 86.7597 21.4173Z" fill="#FFFFFF"/>
<path d="M105.278 13.5926V29.3559H100.527V13.5926H94.9706V9.49802H110.835V13.5926H105.278Z" fill="#FFFFFF"/>
<path fill-rule="evenodd" clip-rule="evenodd" d="M20.1452 0C30.8122 0 39.4632 8.72727 39.4632 19.5C39.4632 30.2675 30.8122 39 20.1452 39C9.47297 39 0.827148 30.2675 0.827148 19.5C0.827148 8.73252 9.47297 0 20.1452 0Z" fill="#FFFFFF"/>
<path d="M30.2876 8.27624C24.5515 2.97904 15.755 2.97904 10.0188 8.27624L8.93287 7.20631C15.2614 1.31121 25.0139 1.31121 31.3476 7.20631L30.2876 8.27624Z" fill="#FFFFFF"/>
<path d="M31.2694 9.257L32.3293 8.18707V8.16085C38.1694 14.549 38.1694 24.3934 32.3293 30.7867L31.2694 29.7168C36.5172 23.9266 36.5172 15.0525 31.2694 9.257Z" fill="#FFFFFF"/>
<path d="M9.02611 29.7273C3.78874 23.9371 3.78874 15.0682 9.02611 9.27798L7.96617 8.20805C2.12608 14.5962 2.12608 24.4406 7.96617 30.8339L9.02611 29.7273Z" fill="#FFFFFF"/>
<path d="M10.0079 30.7133C15.7441 36.0105 24.5406 36.0105 30.2768 30.7133L31.3627 31.7885C25.0342 37.6783 15.2817 37.6783 8.94797 31.7885L10.0079 30.7133Z" fill="#FFFFFF"/>
<path fill-rule="evenodd" clip-rule="evenodd" d="M23.3613 16.7727C23.3613 18.9126 20.0464 18.6556 18.9916 18.6556V14.8846C20.0412 14.8794 23.3613 14.5437 23.3613 16.7727ZM24.2238 22.6311C24.2238 24.9703 20.249 24.7028 18.9812 24.7028V20.549C20.2542 20.5542 24.2238 20.1871 24.2238 22.6311ZM26.8425 15.9283C26.6295 13.6941 24.7226 12.9441 22.3066 12.7133V9.63461H20.4413V12.6556C19.9477 12.6556 19.4489 12.6556 18.9501 12.6713V9.63461H17.09V12.7343H13.3074V14.7483C13.3074 14.7483 14.6843 14.722 14.6635 14.7483C15.1779 14.6906 15.6507 15.0577 15.7235 15.5769V24.0629C15.7131 24.2413 15.6299 24.4038 15.5 24.5245C15.365 24.6399 15.1935 24.6976 15.0168 24.6871C15.0376 24.708 13.6607 24.6871 13.6607 24.6871L13.2918 26.9371H17.0588V30.0839H18.9293V26.979H20.4153V30.0629H22.2858V26.9528C25.4396 26.7587 27.6426 25.972 27.9128 22.993C28.1363 20.5962 27.0192 19.5262 25.2318 19.0909C26.3229 18.5455 27.0036 17.5594 26.8425 15.9283Z" fill="#0B0E13"/>
<path fill-rule="evenodd" clip-rule="evenodd" d="M20.14 1.52098C10.3147 1.52622 2.34952 9.57168 2.34952 19.4948C2.34952 29.4178 10.3199 37.458 20.1504 37.458C29.9808 37.458 37.9512 29.4178 37.9512 19.4948C37.9408 9.57168 29.9704 1.53671 20.14 1.53147V1.52098ZM20.14 39C9.47297 39 0.827148 30.2675 0.827148 19.5C0.827148 8.72727 9.47297 0 20.1452 0C30.8122 0 39.4632 8.72727 39.4632 19.4948C39.4528 30.2622 30.807 38.9895 20.14 39Z" fill="#FFFFFF"/>
</svg>
