<svg width="160" height="36" viewBox="0 0 160 36" fill="none" xmlns="http://www.w3.org/2000/svg">
<path d="M20.136 32.3465C20.0595 32.3649 19.983 32.3649 19.9066 32.3649H19.1228C15.6627 32.3649 12.4702 31.2209 9.94678 29.3019C8.66597 28.1763 7.80572 26.6817 7.3278 25.6668C6.92635 24.818 6.60137 23.9323 6.39109 23.0097C6.1808 22.1056 6.0661 21.183 6.04699 20.2419V19.7622C6.05655 19.6238 6.0661 19.49 6.07566 19.3562C6.08522 19.2225 6.09478 19.0887 6.10434 18.9503C6.1808 18.083 6.37197 17.2158 6.62049 16.3854C6.88812 15.5366 7.23222 14.7063 7.6719 13.9313C8.11159 13.1194 8.64685 12.3629 9.25858 11.6617C9.90855 10.9052 10.6541 10.2225 11.457 9.63199C12.2408 9.05997 13.0819 8.56176 13.9804 8.15582C14.8598 7.76833 15.7774 7.45464 16.7332 7.25167C17.6699 7.0487 18.6257 6.93798 19.6007 6.91953H20.0977V9.37366H19.658C16.4847 9.44746 13.3878 10.7576 11.2085 13.2486C9.46887 15.2414 8.60862 17.6771 8.5895 20.1128C8.55127 23.3788 10.0041 26.6632 12.8334 28.9513C14.5348 30.3168 16.542 31.1102 18.6449 31.553C19.5816 31.756 21.0727 31.9959 22.9079 31.9405C22.8314 31.959 22.7597 31.9774 22.688 31.9959C22.6163 32.0144 22.5447 32.0328 22.4682 32.0513H22.4491C22.4204 32.0605 22.3869 32.0651 22.3535 32.0697C22.32 32.0743 22.2866 32.0789 22.2579 32.0882H22.2197C22.0859 32.1251 21.9329 32.162 21.78 32.1804C21.7418 32.1896 21.7083 32.1943 21.6749 32.1989C21.6414 32.2035 21.6079 32.2081 21.5697 32.2173H21.5315C21.5028 32.2173 21.4741 32.2219 21.4454 32.2266C21.4168 32.2312 21.3881 32.2358 21.3594 32.2358H21.3212L21.3018 32.2405L21.2833 32.2452C21.2245 32.26 21.1743 32.2727 21.1109 32.2727C21.0727 32.2727 21.0344 32.2773 20.9962 32.2819C20.958 32.2865 20.9197 32.2911 20.8815 32.2911H20.8433C20.8023 32.2911 20.7668 32.2964 20.7339 32.3013C20.7053 32.3056 20.6787 32.3096 20.6521 32.3096H20.5948C20.5374 32.328 20.4801 32.328 20.4227 32.328H20.3654C20.2889 32.3465 20.2315 32.3465 20.1551 32.3465H20.136Z" fill="#FFFFFF"/>
<path d="M23.6349 29.9846C22.7555 29.9661 21.6659 29.837 20.8248 29.6894C16.8867 29.0066 13.5031 26.6817 12.2605 23.1758C10.7503 18.9133 13.0634 14.3003 17.4602 12.898C18.3205 12.6212 19.1807 12.492 20.0601 12.492C21.188 12.492 22.3159 12.7135 23.3482 13.1194L24.4187 10.9236C24.0937 10.7944 23.7687 10.6837 23.4437 10.573C22.3541 10.2409 21.2071 10.0748 20.0601 10.0748C18.9131 10.0748 17.7661 10.2593 16.6764 10.6099C15.2809 11.0528 14.0001 11.7724 12.9105 12.7135C12.3943 13.1563 11.8973 13.673 11.4767 14.2081C11.0562 14.7432 10.6929 15.3152 10.3871 15.9241C10.0812 16.533 9.83269 17.1604 9.66064 17.8062C9.48859 18.452 9.35477 19.1348 9.31654 19.8175C9.22095 21.2199 9.41212 22.6222 9.89004 23.9508C10.368 25.2978 11.1326 26.5341 12.184 27.6227C13.1207 28.6007 14.2104 29.3388 15.5294 30.0215C16.9058 30.7227 18.6072 31.0917 20.3851 31.3316C21.5321 31.4792 23.0614 31.5161 23.9599 31.5161C24.7245 31.2461 25.0525 31.1166 25.4585 30.9562L25.4892 30.9441C25.8524 30.778 26.2157 30.612 26.5789 30.409C26.9344 30.2103 26.9969 30.1707 27.5733 29.8056L27.5739 29.8052L27.6112 29.7816C27.6685 29.7447 27.7259 29.7078 27.7641 29.6709C25.6868 30.0355 25.1392 30.0219 23.6888 29.9859L23.6349 29.9846Z" fill="#FFFFFF"/>
<path d="M28.2569 27.2587L28.3378 27.2537C28.9727 27.2077 29.8317 27.1236 30.4333 27.0647C30.556 27.0526 30.6684 27.0416 30.7656 27.0322C30.0965 27.8441 29.3127 28.5822 28.4716 29.228C27.5922 29.4126 27.0761 29.4864 26.3879 29.5233C23.9027 29.6893 21.3411 29.4864 19.6015 28.9328C17.7854 28.3423 16.084 27.309 14.8414 26.0174C14.1341 25.2793 13.5797 24.4859 13.1783 23.6371C12.7386 22.6776 12.5092 21.6627 12.5092 20.6478C12.5092 19.633 12.7195 18.655 13.1209 17.7324C13.5033 16.8467 14.0768 16.0348 14.7841 15.3521C15.4914 14.6694 16.3325 14.1158 17.2501 13.7467C18.206 13.3593 19.2191 13.1563 20.2706 13.1563C21.322 13.1563 22.3352 13.3593 23.291 13.7467C24.2086 14.1158 25.0497 14.6694 25.757 15.3521C26.3114 15.8687 26.7511 16.4592 27.1143 17.105L24.8394 18.1937C23.941 16.6622 22.2396 15.6104 20.2706 15.6104C17.3839 15.6104 15.0326 17.8616 15.0326 20.6663C15.0326 23.471 17.6325 25.7406 20.3853 26.6263C22.1631 27.1983 24.2468 27.3459 25.9482 27.3459C26.8613 27.3459 27.6698 27.2954 28.2569 27.2587Z" fill="#FFFFFF"/>
<path fill-rule="evenodd" clip-rule="evenodd" d="M37.4174 14.3742C37.1689 13.2117 36.8057 12.0861 36.3278 10.9974C35.8689 9.92722 35.2763 8.91235 34.6073 7.93439C33.9382 6.97488 33.1735 6.08918 32.3324 5.27729C31.4912 4.4654 30.5736 3.72732 29.5796 3.0815C28.5855 2.43567 27.515 1.88211 26.4062 1.42081C25.2783 0.959508 24.1122 0.608918 22.9079 0.369042C21.6844 0.129165 20.4227 0 19.161 0C17.8993 0 16.6567 0.147617 15.4333 0.387494C14.2289 0.627371 13.0628 0.97796 11.9349 1.43926C10.8261 1.88211 9.77472 2.45413 8.76154 3.09995C7.76747 3.74577 6.84988 4.48385 6.00874 5.29575C5.16761 6.10764 4.40294 6.99334 3.73386 7.95284C3.06478 8.91235 2.49128 9.94567 2.01336 11.0159C1.53545 12.1046 1.17223 13.2301 0.923715 14.3926C0.675198 15.5736 0.541382 16.7914 0.541382 18.0092C0.541382 19.2271 0.675198 20.4449 0.923715 21.6258C1.17223 22.7883 1.53545 23.9139 2.01336 25.0026C2.47216 26.0728 3.06478 27.0876 3.73386 28.0656C4.40294 29.0251 5.16761 29.9108 6.00874 30.7227C6.84988 31.5346 7.76747 32.2727 8.76154 32.9185C9.75561 33.5643 10.8261 34.1179 11.9349 34.5792C13.0628 35.0405 14.2289 35.3911 15.4333 35.631C16.6567 35.8708 17.9184 36 19.1801 36C20.4418 36 21.7035 35.8708 22.927 35.631C24.1313 35.3911 25.2974 35.0405 26.4253 34.5792C27.5341 34.1363 28.5855 33.5643 29.5987 32.9185C30.5928 32.2727 31.5104 31.5346 32.3515 30.7227C33.1926 29.9108 33.9573 29.0251 34.6264 28.0656C35.2954 27.1061 35.8689 26.0728 36.3469 25.0026C36.8248 23.9139 37.188 22.7883 37.4365 21.6258C37.685 20.4449 37.8188 19.2271 37.8188 18.0092C37.7997 16.7729 37.6659 15.5551 37.4174 14.3742ZM19.1801 33.7119C10.1762 33.7119 2.89273 26.6632 2.89273 17.9908C2.89273 9.3183 10.1953 2.26961 19.1801 2.26961C28.1649 2.26961 35.4675 9.3183 35.4675 17.9908C35.4675 26.6817 28.1841 33.7119 19.1801 33.7119Z" fill="#FFFFFF"/>
<path fill-rule="evenodd" clip-rule="evenodd" d="M58.8477 21.6442C58.8477 23.5079 58.1404 24.8734 56.8978 25.7775C55.7699 26.6263 54.2215 27.1061 52.2142 27.0876H42.8088V8.61708H52.0231C54.0112 8.61708 55.464 9.09684 56.4772 9.89028C57.5669 10.776 58.1213 11.9569 58.1213 13.4331C58.1213 15.2598 57.1272 16.4223 55.4258 17.0497V17.1419C57.5095 17.7509 58.8477 19.4669 58.8477 21.6442ZM51.354 12.2521H47.4733V15.9426H51.3157C52.6921 15.9426 53.6097 15.2783 53.6097 14.0789C53.6097 12.9349 52.7304 12.2521 51.354 12.2521ZM47.4733 19.0241V23.4156H51.7172C53.2656 23.4156 54.2215 22.5669 54.2215 21.2383C54.2215 19.7621 53.0936 19.0241 51.6598 19.0241H47.4733Z" fill="#FFFFFF"/>
<path d="M79.1113 27.0692H83.8523V12.492H88.8226V8.61708H74.2366V12.492H79.1113V27.0692Z" fill="#FFFFFF"/>
<path d="M156.438 27.2168C153.877 27.2168 152.08 26.4233 152.08 23.6002V16.4961H150.244V13.8759H152.06V9.68731H156.304V13.8759H158.77V16.4961H156.304V22.696C156.304 23.7293 156.878 23.9877 157.834 23.9877C158.068 23.9877 158.568 23.9738 158.955 23.9631C159.2 23.9563 159.399 23.9508 159.459 23.9508V27.0138C159.095 27.1245 157.604 27.2168 156.438 27.2168Z" fill="#FFFFFF"/>
<path d="M140.514 19.7621C140.514 18.1199 141.489 16.9574 142.923 16.9574C144.318 16.9574 145.064 17.9354 145.064 19.3193V27.1061H149.403V18.5074C149.403 15.5551 147.625 13.5069 144.643 13.5069C142.751 13.5069 141.432 14.2819 140.438 15.6842H140.342V13.8944H136.155V27.0876H140.514V19.7621Z" fill="#FFFFFF"/>
<path d="M106.41 21.1829C106.41 18.3229 108.188 17.1235 110.463 17.4187H110.577V13.7837C110.386 13.6914 110.119 13.636 109.717 13.673C108.475 13.7283 107.27 14.3741 106.295 15.9426H106.2V13.8759H102.013V27.1061H106.372V21.1829H106.41Z" fill="#FFFFFF"/>
<path d="M116.236 21.1829V27.1061H111.839V13.8759H116.026V15.9426H116.121C117.096 14.3741 118.3 13.7283 119.543 13.673C119.945 13.636 120.212 13.6914 120.403 13.7837V17.4187H120.289C118.014 17.1235 116.236 18.3229 116.236 21.1829Z" fill="#FFFFFF"/>
<path fill-rule="evenodd" clip-rule="evenodd" d="M127.84 27.4567C129.579 27.4567 130.956 27.0138 132.122 26.2573C133.307 25.4638 134.11 24.3198 134.416 23.1389H130.172C129.809 23.9692 129.082 24.4674 127.916 24.4674C126.119 24.4674 125.106 23.3418 124.838 21.5889H134.664C134.703 18.9133 133.861 16.6068 132.256 15.1676C131.09 14.1343 129.541 13.5253 127.591 13.5253C123.443 13.5253 120.575 16.533 120.575 20.4818C120.537 24.449 123.328 27.4567 127.84 27.4567ZM127.629 16.4592C129.025 16.4592 130.076 17.4925 130.229 19.061H124.819C125.125 17.4556 125.985 16.4592 127.629 16.4592Z" fill="#FFFFFF"/>
<path fill-rule="evenodd" clip-rule="evenodd" d="M85.8971 20.5002C85.8971 24.4859 88.8219 27.4751 93.2188 27.4751C97.6156 27.4751 100.521 24.4674 100.521 20.5002C100.521 16.533 97.6156 13.5254 93.2188 13.5254C88.8219 13.5254 85.8971 16.5146 85.8971 20.5002ZM93.1996 16.4592C95.0922 16.4592 96.1054 18.1015 96.1054 20.5002C96.1054 22.899 95.0922 24.4859 93.1996 24.5043C91.2689 24.5043 90.2939 22.9175 90.2939 20.5002C90.2939 18.083 91.3071 16.4592 93.1996 16.4592Z" fill="#FFFFFF"/>
<path d="M60.6823 13.8759H65.0409V27.0692H60.6823V13.8759Z" fill="#FFFFFF"/>
<path d="M72.6111 27.2168C70.0877 27.2168 68.2525 26.4233 68.2525 23.6002H68.2334V16.4961H66.3982V13.8759H68.2334V9.68731H72.4773V13.8759H74.9434V16.4961H72.4773V22.696C72.4773 23.7293 73.0508 23.9877 74.0066 23.9877C74.2409 23.9877 74.7405 23.9738 75.1276 23.9631L75.129 23.963C75.3732 23.9563 75.5724 23.9508 75.6316 23.9508V27.0138C75.2683 27.1245 73.7772 27.2168 72.6111 27.2168Z" fill="#FFFFFF"/>
<path d="M60.6823 8.61708H65.0409V12.0307H60.6823V8.61708Z" fill="#FFFFFF"/>
</svg>
