<svg width="166" height="26" viewBox="0 0 166 26" fill="none" xmlns="http://www.w3.org/2000/svg">
<path d="M27.7289 20.0087L23.1929 24.7864C23.0948 24.8901 22.976 24.973 22.8439 25.0296C22.7118 25.0863 22.5692 25.1157 22.425 25.1158H0.922652C0.820098 25.1157 0.719785 25.0863 0.633996 25.0311C0.548209 24.9759 0.480671 24.8973 0.43965 24.805C0.39863 24.7126 0.385907 24.6106 0.403043 24.5113C0.420178 24.4119 0.466423 24.3196 0.536122 24.2457L5.06697 19.4681C5.16509 19.3643 5.28389 19.2815 5.41602 19.2248C5.54814 19.1681 5.69074 19.1388 5.83491 19.1387H27.3372C27.4407 19.1366 27.5425 19.1646 27.6298 19.2192C27.7171 19.2738 27.7862 19.3526 27.828 19.4456C27.8699 19.5386 27.8827 19.6417 27.8651 19.7419C27.8474 19.8421 27.8001 19.9349 27.7289 20.0087ZM23.1929 10.3854C23.0944 10.2821 22.9755 10.1997 22.8435 10.143C22.7115 10.0864 22.569 10.0568 22.425 10.0561H0.922652C0.820098 10.0561 0.719785 10.0855 0.633996 10.1407C0.548209 10.1959 0.480671 10.2745 0.43965 10.3669C0.39863 10.4592 0.385907 10.5613 0.403043 10.6606C0.420178 10.7599 0.466423 10.8522 0.536122 10.9261L5.06697 15.7063C5.16545 15.8096 5.28435 15.8921 5.41638 15.9487C5.54842 16.0054 5.69084 16.0349 5.83491 16.0357H27.3372C27.4396 16.0351 27.5395 16.0053 27.625 15.95C27.7105 15.8946 27.7775 15.816 27.8182 15.7237C27.8589 15.6315 27.8715 15.5296 27.8541 15.4305C27.8369 15.3314 27.7908 15.2394 27.7212 15.1657L23.1929 10.3854ZM0.922652 6.95306H22.425C22.5692 6.95293 22.7118 6.92358 22.8439 6.86691C22.976 6.81025 23.0948 6.72742 23.1929 6.62365L27.7289 1.84598C27.8001 1.77218 27.8474 1.67934 27.8651 1.57914C27.8827 1.47894 27.8699 1.37585 27.828 1.28284C27.7862 1.18984 27.7171 1.11108 27.6298 1.05647C27.5425 1.00186 27.4407 0.97384 27.3372 0.97594H5.83491C5.69074 0.976089 5.54814 1.00542 5.41602 1.06209C5.28389 1.11876 5.16509 1.20157 5.06697 1.30535L0.536122 6.08302C0.466423 6.15692 0.420178 6.2492 0.403043 6.34853C0.385907 6.44785 0.39863 6.54992 0.43965 6.64225C0.480671 6.73459 0.548209 6.81317 0.633996 6.86837C0.719785 6.92358 0.820098 6.95301 0.922652 6.95306Z" fill="#FFFFFF"/>
<path fill-rule="evenodd" clip-rule="evenodd" d="M116.674 3.74222H105.411C104.914 3.73958 104.422 3.83302 103.962 4.01721C103.502 4.20143 103.084 4.47278 102.731 4.81579C102.378 5.1588 102.097 5.56676 101.905 6.01634C101.712 6.46595 101.612 6.94839 101.609 7.43612V22.35H105.449V16.2371H116.661V22.35H120.501V7.43612C120.498 6.94626 120.397 6.46175 120.203 6.01048C120.008 5.55925 119.725 5.15018 119.37 4.80681C119.014 4.46347 118.593 4.19265 118.13 4.00994C117.667 3.82724 117.172 3.73626 116.674 3.74222ZM116.645 12.5155H105.434V7.46378H116.645V12.5155Z" fill="#FFFFFF"/>
<path fill-rule="evenodd" clip-rule="evenodd" d="M64.6815 3.74218H76.2288C76.7254 3.73954 77.2174 3.83299 77.6771 4.01718C78.1368 4.20139 78.5554 4.47274 78.9081 4.81575C79.2611 5.15877 79.5419 5.56673 79.7344 6.01631C79.9269 6.46591 80.0275 6.94836 80.0301 7.43608V18.6561C80.0275 19.1438 79.9269 19.6263 79.7344 20.0759C79.5419 20.5254 79.2611 20.9334 78.9081 21.2764C78.5554 21.6194 78.1368 21.8908 77.6771 22.075C77.2174 22.2592 76.7254 22.3526 76.2288 22.35H64.6815C64.1841 22.354 63.6909 22.2615 63.2298 22.0779C62.7691 21.8943 62.3495 21.6232 61.9955 21.28C61.6412 20.9369 61.3597 20.5285 61.1667 20.0782C60.9734 19.6279 60.8725 19.1447 60.87 18.6561V7.43608C60.8725 6.9475 60.9734 6.46423 61.1667 6.01397C61.3597 5.56371 61.6412 5.15532 61.9955 4.81218C62.3495 4.46902 62.7691 4.1979 63.2298 4.01429C63.6909 3.83067 64.1841 3.73821 64.6815 3.74218ZM64.7097 18.6284H76.2006L76.1955 7.46374H64.7097V18.6284Z" fill="#FFFFFF"/>
<path d="M42.4394 11.1852H53.9431C54.44 11.1826 54.9328 11.2762 55.3928 11.4607C55.8528 11.6453 56.2713 11.9171 56.6245 12.2606C56.9775 12.6041 57.2581 13.0127 57.4503 13.4629C57.6426 13.913 57.7424 14.396 57.7445 14.8842V18.656C57.7419 19.1437 57.6413 19.6262 57.4488 20.0758C57.2563 20.5254 56.9755 20.9333 56.6225 21.2763C56.2698 21.6194 55.8512 21.8907 55.3915 22.0749C54.9317 22.2591 54.4398 22.3526 53.9431 22.3499H38.8736V18.6284H53.9201V14.9068H42.401C41.9041 14.9095 41.4114 14.8158 40.9514 14.6313C40.4914 14.4468 40.0729 14.175 39.7196 13.8314C39.3666 13.4879 39.0861 13.0794 38.8938 12.6292C38.7016 12.179 38.6017 11.696 38.5997 11.2079V7.43602C38.6023 6.94829 38.7029 6.46585 38.8954 6.01624C39.0879 5.56666 39.3687 5.1587 39.7217 4.81569C40.0744 4.47267 40.4929 4.20133 40.9527 4.01711C41.4124 3.83292 41.9044 3.73948 42.401 3.74212H56.933V7.46368H42.4394V11.1852Z" fill="#FFFFFF"/>
<path fill-rule="evenodd" clip-rule="evenodd" d="M150.245 3.74212H161.508C162.005 3.73948 162.497 3.83292 162.957 4.01711C163.416 4.20133 163.835 4.47267 164.188 4.81569C164.541 5.1587 164.822 5.56666 165.014 6.01624C165.207 6.46585 165.307 6.94829 165.31 7.43602V22.3499H161.47V16.237H150.284V22.3499H146.444V7.43602C146.447 6.94829 146.547 6.46585 146.74 6.01624C146.932 5.56666 147.213 5.1587 147.566 4.81569C147.919 4.47267 148.337 4.20133 148.797 4.01711C149.257 3.83292 149.749 3.73948 150.245 3.74212ZM150.258 12.5154H161.47V7.46368H150.258V12.5154Z" fill="#FFFFFF"/>
<path d="M139.2 18.6283H137.664L132.173 5.30113C131.985 4.84134 131.661 4.44728 131.244 4.16952C130.826 3.89174 130.333 3.7429 129.828 3.74209H126.421C126.09 3.74043 125.762 3.80287 125.456 3.92581C125.149 4.04877 124.87 4.22982 124.635 4.45864C124.399 4.6875 124.212 4.9596 124.084 5.25948C123.956 5.55935 123.889 5.88111 123.887 6.20637V22.3499H127.727V7.46365H129.263L134.751 20.7909C134.942 21.2498 135.269 21.6422 135.688 21.9181C136.107 22.194 136.601 22.3408 137.106 22.3398H140.513C140.844 22.3415 141.172 22.2791 141.479 22.1561C141.786 22.0332 142.064 21.8521 142.3 21.6233C142.535 21.3945 142.722 21.1223 142.85 20.8225C142.979 20.5226 143.045 20.2008 143.047 19.8756V3.74209H139.2V18.6283Z" fill="#FFFFFF"/>
<path d="M83.422 3.74218H87.2617V18.6284H98.7552V22.35H87.2361C86.7385 22.3543 86.2449 22.2621 85.7836 22.0786C85.3226 21.8951 84.9026 21.6241 84.5483 21.2809C84.194 20.9377 83.9122 20.5292 83.7189 20.0788C83.5257 19.6284 83.4245 19.1449 83.422 18.6561V3.74218Z" fill="#FFFFFF"/>
</svg>
