<svg width="147" height="27" viewBox="0 0 147 27" fill="none" xmlns="http://www.w3.org/2000/svg">
<path d="M19.5837 8.56927H27.8289V11.8791H0.244141V8.56927H8.48948L2.69921 0H7.07666L14.025 10.3375L20.9965 0H25.3739L19.5837 8.56927Z" fill="#FFFFFF"/>
<path d="M19.4215 18.3174L25.2813 27H20.9038L14.025 16.7985L7.14614 27H2.79186L8.6516 18.34H0.244141V15.0529H27.8289V18.3174H19.4215Z" fill="#FFFFFF"/>
<path d="M45.6067 20.5909C44.5563 19.7501 43.9626 18.6438 43.8484 17.2497L39.9666 17.1834C39.9895 18.7322 40.4004 20.1041 41.2224 21.299C42.0445 22.4938 43.1863 23.4453 44.6476 24.1092C46.109 24.7951 47.7987 25.1269 49.7167 25.1269C51.4522 25.1269 53.0049 24.8172 54.375 24.1977C55.745 23.5781 56.8182 22.7373 57.5717 21.6309C58.3252 20.5245 58.7134 19.2855 58.7134 17.8914C58.7134 16.4532 58.3481 15.3026 57.6403 14.4175C56.9095 13.5324 55.9962 12.8686 54.8544 12.426C53.7128 11.9614 52.3655 11.6073 50.79 11.3418C49.2373 11.0763 48.0271 10.8329 47.205 10.6116C46.383 10.3682 45.7208 10.0363 45.2185 9.59378C44.7161 9.15124 44.465 8.53168 44.465 7.77937C44.465 6.71726 44.8759 5.87643 45.7208 5.27901C46.5657 4.68157 47.6845 4.39392 49.1003 4.39392C50.5616 4.39392 51.7491 4.77008 52.708 5.50027C53.6442 6.23046 54.1922 7.20406 54.3293 8.42105H58.2568C58.1883 7.00491 57.7544 5.76579 56.9781 4.65944C56.2017 3.55309 55.1284 2.69013 53.7584 2.07057C52.3884 1.42889 50.8356 1.11911 49.1003 1.11911C47.4105 1.11911 45.9035 1.42889 44.6019 2.00419C43.2775 2.5795 42.2728 3.3982 41.5422 4.4603C40.8115 5.5224 40.4461 6.71726 40.4461 8.06701C40.4461 9.5274 40.7886 10.7001 41.4964 11.6073C42.2044 12.4924 43.1177 13.1562 44.2366 13.5988C45.3554 14.0414 46.7027 14.3953 48.2782 14.6609C49.8309 14.9265 51.0184 15.1919 51.886 15.4353C52.7537 15.6788 53.4159 16.0327 53.9182 16.4974C54.4206 16.9399 54.6718 17.5817 54.6718 18.3561C54.6718 19.4404 54.2151 20.3033 53.3017 20.9228C52.3884 21.5424 51.2011 21.8522 49.7167 21.8522C48.0271 21.8522 46.657 21.4317 45.6067 20.5909Z" fill="#FFFFFF"/>
<path d="M59.8552 10.8993H62.9378V20.2369C62.9378 21.83 63.326 23.0249 64.1023 23.7772C64.8787 24.5517 66.1117 24.9279 67.8015 24.9279H71.4092V21.7194H68.555C67.8928 21.7194 67.4133 21.5866 67.1393 21.299C66.8653 21.0114 66.7282 20.5245 66.7282 19.8607V10.8771H70.9982V7.69086H66.7282V2.88927H62.9378V7.71298H59.8552V10.8993Z" fill="#FFFFFF"/>
<path fill-rule="evenodd" clip-rule="evenodd" d="M90.293 24.9279V7.71298H87.005L86.5483 10.2355C85.9546 9.39464 85.1782 8.73082 84.1963 8.24402C83.2373 7.75723 82.0956 7.51383 80.7713 7.51383C79.1956 7.51383 77.7571 7.86786 76.4783 8.59807C75.2225 9.32826 74.2178 10.3682 73.4872 11.6959C72.7565 13.0235 72.391 14.5724 72.391 16.3204C72.391 18.1127 72.7565 19.6837 73.4643 21.0114C74.195 22.3389 75.1769 23.3568 76.4556 24.0649C77.7343 24.773 79.1729 25.1269 80.794 25.1269C82.0956 25.1269 83.2144 24.8615 84.1963 24.3525C85.1782 23.8215 85.9774 23.1577 86.5939 22.2948L87.005 24.9279H90.293ZM86.571 16.3868C86.571 18.0684 86.1144 19.4182 85.1553 20.4802C84.2192 21.5424 82.9633 22.0735 81.4106 22.0735C79.8578 22.0735 78.6247 21.5424 77.6658 20.4802C76.7296 19.4182 76.25 18.0242 76.25 16.3204C76.25 14.6388 76.7067 13.2668 77.6658 12.2048C78.602 11.1427 79.8578 10.6116 81.4106 10.6116C82.9633 10.6116 84.1963 11.1427 85.1553 12.2269C86.0916 13.289 86.571 14.683 86.571 16.3868Z" fill="#FFFFFF"/>
<path d="M102.167 25.1269C104.427 25.1269 106.254 24.5517 107.693 23.4232C109.108 22.2948 110.022 20.7458 110.364 18.7322H106.551C106.323 19.7501 105.82 20.5466 105.067 21.1441C104.313 21.7415 103.354 22.0292 102.19 22.0292C100.683 22.0292 99.4724 21.4981 98.559 20.4361C97.6457 19.374 97.1889 17.9799 97.1889 16.2762C97.1889 14.5945 97.6457 13.2447 98.559 12.1826C99.4724 11.1427 100.683 10.6116 102.19 10.6116C103.308 10.6116 104.245 10.9214 104.998 11.4967C105.775 12.072 106.277 12.8465 106.528 13.8422H110.387C110.022 11.895 109.154 10.3461 107.738 9.21762C106.323 8.08914 104.496 7.51383 102.281 7.51383C100.5 7.51383 98.9244 7.86786 97.5771 8.59807C96.2071 9.32826 95.1567 10.3461 94.426 11.6737C93.6725 13.0014 93.3071 14.5281 93.3071 16.2762C93.3071 18.0242 93.6725 19.573 94.4031 20.9228C95.1339 22.2726 96.1615 23.3125 97.5086 24.0428C98.8559 24.773 100.409 25.1269 102.167 25.1269Z" fill="#FFFFFF"/>
<path d="M117.123 1.38464H113.401V24.9279H117.146V20.5245L120.297 17.294L125.572 24.9279H130.024L122.969 14.6388L129.591 7.71298H125.252L117.123 16.1212V1.38464Z" fill="#FFFFFF"/>
<path d="M135.596 21.4538C134.797 20.8786 134.364 20.1484 134.295 19.2412V19.2633H130.641C130.686 21.0999 131.463 22.5381 132.924 23.5781C134.386 24.6181 136.326 25.1492 138.702 25.1492C140.116 25.1492 141.373 24.9279 142.515 24.4853C143.657 24.0428 144.547 23.4232 145.187 22.6045C145.849 21.7858 146.168 20.8565 146.168 19.7722C146.168 18.5553 145.849 17.6038 145.232 16.8957C144.615 16.1876 143.794 15.6788 142.743 15.3468C141.693 15.0149 140.414 14.7715 138.884 14.6166C137.742 14.4839 136.92 14.3732 136.418 14.2626C135.915 14.1741 135.504 13.997 135.163 13.7316C134.82 13.4881 134.66 13.0898 134.66 12.5809C134.66 11.895 135.002 11.3418 135.664 10.9435C136.35 10.5452 137.217 10.3461 138.313 10.3461C139.409 10.3461 140.322 10.5895 141.031 11.0984C141.738 11.5852 142.149 12.249 142.241 13.0235H145.894C145.757 11.2754 145.003 9.92568 143.61 8.9521C142.218 8.00063 140.391 7.51383 138.154 7.51383C136.806 7.51383 135.573 7.73511 134.499 8.17765C133.427 8.62018 132.582 9.26187 131.965 10.0806C131.349 10.8993 131.052 11.8286 131.052 12.8907C131.052 14.0191 131.349 14.9042 131.965 15.5681C132.558 16.2319 133.381 16.6966 134.386 17.0063C135.39 17.3161 136.669 17.5596 138.222 17.7365C139.341 17.8693 140.185 17.9799 140.733 18.1127C141.282 18.2233 141.716 18.4446 142.035 18.7322C142.355 19.0199 142.515 19.4625 142.515 20.0378C142.515 20.7237 142.173 21.2769 141.464 21.6973C140.757 22.1177 139.844 22.3169 138.702 22.3169C137.423 22.3169 136.395 22.0292 135.596 21.4538Z" fill="#FFFFFF"/>
</svg>
